G04 #@! TF.GenerationSoftware,KiCad,Pcbnew,6.0.10+dfsg-1~bpo11+1*
G04 #@! TF.CreationDate,2023-02-14T21:13:00+00:00*
G04 #@! TF.ProjectId,Gazpar,47617a70-6172-42e6-9b69-6361645f7063,rev?*
G04 #@! TF.SameCoordinates,Original*
G04 #@! TF.FileFunction,Legend,Top*
G04 #@! TF.FilePolarity,Positive*
%FSLAX46Y46*%
G04 Gerber Fmt 4.6, Leading zero omitted, Abs format (unit mm)*
G04 Created by KiCad (PCBNEW 6.0.10+dfsg-1~bpo11+1) date 2023-02-14 21:13:00*
%MOMM*%
%LPD*%
G01*
G04 APERTURE LIST*
%ADD10C,0.150000*%
%ADD11C,0.500000*%
%ADD12C,0.120000*%
%ADD13C,0.127000*%
G04 APERTURE END LIST*
D10*
X187938938Y-60364047D02*
X188020188Y-59714047D01*
X188174950Y-59714047D01*
X188263938Y-59745000D01*
X188318105Y-59806904D01*
X188341319Y-59868809D01*
X188356796Y-59992619D01*
X188345188Y-60085476D01*
X188298760Y-60209285D01*
X188260069Y-60271190D01*
X188190427Y-60333095D01*
X188093700Y-60364047D01*
X187938938Y-60364047D01*
X188867510Y-60364047D02*
X188910069Y-60023571D01*
X188886855Y-59961666D01*
X188828819Y-59930714D01*
X188705010Y-59930714D01*
X188639236Y-59961666D01*
X188871379Y-60333095D02*
X188805605Y-60364047D01*
X188650843Y-60364047D01*
X188592808Y-60333095D01*
X188569593Y-60271190D01*
X188577331Y-60209285D01*
X188616022Y-60147380D01*
X188681796Y-60116428D01*
X188836558Y-60116428D01*
X188902331Y-60085476D01*
X189138343Y-59930714D02*
X189385962Y-59930714D01*
X189258284Y-59714047D02*
X189188641Y-60271190D01*
X189211855Y-60333095D01*
X189269891Y-60364047D01*
X189331796Y-60364047D01*
X189827034Y-60364047D02*
X189869593Y-60023571D01*
X189846379Y-59961666D01*
X189788343Y-59930714D01*
X189664534Y-59930714D01*
X189598760Y-59961666D01*
X189830903Y-60333095D02*
X189765129Y-60364047D01*
X189610367Y-60364047D01*
X189552331Y-60333095D01*
X189529117Y-60271190D01*
X189536855Y-60209285D01*
X189575546Y-60147380D01*
X189641319Y-60116428D01*
X189796081Y-60116428D01*
X189861855Y-60085476D01*
X190786558Y-60611666D02*
X190759474Y-60580714D01*
X190709177Y-60487857D01*
X190685962Y-60425952D01*
X190666617Y-60333095D01*
X190655010Y-60178333D01*
X190670486Y-60054523D01*
X190720784Y-59899761D01*
X190763343Y-59806904D01*
X190802034Y-59745000D01*
X190875546Y-59652142D01*
X190910367Y-59621190D01*
X191107688Y-59775952D02*
X191142510Y-59745000D01*
X191208284Y-59714047D01*
X191363046Y-59714047D01*
X191421081Y-59745000D01*
X191448165Y-59775952D01*
X191471379Y-59837857D01*
X191463641Y-59899761D01*
X191421081Y-59992619D01*
X191003224Y-60364047D01*
X191405605Y-60364047D01*
X191591319Y-60611666D02*
X191626141Y-60580714D01*
X191699653Y-60487857D01*
X191738343Y-60425952D01*
X191780903Y-60333095D01*
X191831200Y-60178333D01*
X191846677Y-60054523D01*
X191835069Y-59899761D01*
X191815724Y-59806904D01*
X191792510Y-59745000D01*
X191742212Y-59652142D01*
X191715129Y-59621190D01*
D11*
X173155000Y-56339285D02*
X173059761Y-56434523D01*
X173155000Y-56529761D01*
X173250238Y-56434523D01*
X173155000Y-56339285D01*
X173155000Y-56529761D01*
D10*
X188620129Y-47405000D02*
X188562093Y-47374047D01*
X188469236Y-47374047D01*
X188372510Y-47405000D01*
X188302867Y-47466904D01*
X188264177Y-47528809D01*
X188217748Y-47652619D01*
X188206141Y-47745476D01*
X188221617Y-47869285D01*
X188244831Y-47931190D01*
X188298998Y-47993095D01*
X188387986Y-48024047D01*
X188449891Y-48024047D01*
X188546617Y-47993095D01*
X188581438Y-47962142D01*
X188608522Y-47745476D01*
X188484712Y-47745476D01*
X188852272Y-48024047D02*
X188933522Y-47374047D01*
X189223700Y-48024047D01*
X189304950Y-47374047D01*
X189533224Y-48024047D02*
X189614474Y-47374047D01*
X189769236Y-47374047D01*
X189858224Y-47405000D01*
X189912391Y-47466904D01*
X189935605Y-47528809D01*
X189951081Y-47652619D01*
X189939474Y-47745476D01*
X189893046Y-47869285D01*
X189854355Y-47931190D01*
X189784712Y-47993095D01*
X189687986Y-48024047D01*
X189533224Y-48024047D01*
X190833224Y-48271666D02*
X190806141Y-48240714D01*
X190755843Y-48147857D01*
X190732629Y-48085952D01*
X190713284Y-47993095D01*
X190701677Y-47838333D01*
X190717153Y-47714523D01*
X190767450Y-47559761D01*
X190810010Y-47466904D01*
X190848700Y-47405000D01*
X190922212Y-47312142D01*
X190957034Y-47281190D01*
X191452272Y-48024047D02*
X191080843Y-48024047D01*
X191266558Y-48024047D02*
X191347808Y-47374047D01*
X191274296Y-47466904D01*
X191204653Y-47528809D01*
X191138879Y-47559761D01*
X191637986Y-48271666D02*
X191672808Y-48240714D01*
X191746319Y-48147857D01*
X191785010Y-48085952D01*
X191827569Y-47993095D01*
X191877867Y-47838333D01*
X191893343Y-47714523D01*
X191881736Y-47559761D01*
X191862391Y-47466904D01*
X191839177Y-47405000D01*
X191788879Y-47312142D01*
X191761796Y-47281190D01*
X189831904Y-87527380D02*
X189831904Y-86527380D01*
X190070000Y-86527380D01*
X190212857Y-86575000D01*
X190308095Y-86670238D01*
X190355714Y-86765476D01*
X190403333Y-86955952D01*
X190403333Y-87098809D01*
X190355714Y-87289285D01*
X190308095Y-87384523D01*
X190212857Y-87479761D01*
X190070000Y-87527380D01*
X189831904Y-87527380D01*
X190784285Y-86622619D02*
X190831904Y-86575000D01*
X190927142Y-86527380D01*
X191165238Y-86527380D01*
X191260476Y-86575000D01*
X191308095Y-86622619D01*
X191355714Y-86717857D01*
X191355714Y-86813095D01*
X191308095Y-86955952D01*
X190736666Y-87527380D01*
X191355714Y-87527380D01*
X187689047Y-91364394D02*
X187689047Y-91673918D01*
X187039047Y-91592668D01*
X187348571Y-91105168D02*
X187348571Y-90888501D01*
X187689047Y-90838203D02*
X187689047Y-91147727D01*
X187039047Y-91066477D01*
X187039047Y-90756953D01*
X187689047Y-90559632D02*
X187039047Y-90478382D01*
X187039047Y-90323620D01*
X187070000Y-90234632D01*
X187131904Y-90180465D01*
X187193809Y-90157251D01*
X187317619Y-90141775D01*
X187410476Y-90153382D01*
X187534285Y-90199811D01*
X187596190Y-90238501D01*
X187658095Y-90308144D01*
X187689047Y-90404870D01*
X187689047Y-90559632D01*
X168914404Y-76092380D02*
X168914404Y-75092380D01*
X169152500Y-75092380D01*
X169295357Y-75140000D01*
X169390595Y-75235238D01*
X169438214Y-75330476D01*
X169485833Y-75520952D01*
X169485833Y-75663809D01*
X169438214Y-75854285D01*
X169390595Y-75949523D01*
X169295357Y-76044761D01*
X169152500Y-76092380D01*
X168914404Y-76092380D01*
X170438214Y-76092380D02*
X169866785Y-76092380D01*
X170152500Y-76092380D02*
X170152500Y-75092380D01*
X170057261Y-75235238D01*
X169962023Y-75330476D01*
X169866785Y-75378095D01*
X168198105Y-70854047D02*
X167826677Y-70854047D01*
X168012391Y-70854047D02*
X168093641Y-70204047D01*
X168020129Y-70296904D01*
X167950486Y-70358809D01*
X167884712Y-70389761D01*
X168476677Y-70854047D02*
X168557927Y-70204047D01*
X168848105Y-70854047D01*
X168929355Y-70204047D01*
X169490367Y-70420714D02*
X169436200Y-70854047D01*
X169366558Y-70173095D02*
X169153760Y-70637380D01*
X169556141Y-70637380D01*
X170117153Y-70854047D02*
X169745724Y-70854047D01*
X169931438Y-70854047D02*
X170012688Y-70204047D01*
X169939177Y-70296904D01*
X169869534Y-70358809D01*
X169803760Y-70389761D01*
X170728462Y-70420714D02*
X170674296Y-70854047D01*
X170604653Y-70173095D02*
X170391855Y-70637380D01*
X170794236Y-70637380D01*
X171154058Y-70482619D02*
X171096022Y-70451666D01*
X171068938Y-70420714D01*
X171045724Y-70358809D01*
X171049593Y-70327857D01*
X171088284Y-70265952D01*
X171123105Y-70235000D01*
X171188879Y-70204047D01*
X171312688Y-70204047D01*
X171370724Y-70235000D01*
X171397808Y-70265952D01*
X171421022Y-70327857D01*
X171417153Y-70358809D01*
X171378462Y-70420714D01*
X171343641Y-70451666D01*
X171277867Y-70482619D01*
X171154058Y-70482619D01*
X171088284Y-70513571D01*
X171053462Y-70544523D01*
X171014772Y-70606428D01*
X170999296Y-70730238D01*
X171022510Y-70792142D01*
X171049593Y-70823095D01*
X171107629Y-70854047D01*
X171231438Y-70854047D01*
X171297212Y-70823095D01*
X171332034Y-70792142D01*
X171370724Y-70730238D01*
X171386200Y-70606428D01*
X171362986Y-70544523D01*
X171335903Y-70513571D01*
X171277867Y-70482619D01*
X157172801Y-43417169D02*
X157172801Y-44227005D01*
X157220438Y-44322280D01*
X157268076Y-44369918D01*
X157363350Y-44417555D01*
X157553900Y-44417555D01*
X157649175Y-44369918D01*
X157696812Y-44322280D01*
X157744450Y-44227005D01*
X157744450Y-43417169D01*
X158173187Y-43512444D02*
X158220824Y-43464807D01*
X158316099Y-43417169D01*
X158554286Y-43417169D01*
X158649561Y-43464807D01*
X158697198Y-43512444D01*
X158744836Y-43607719D01*
X158744836Y-43702994D01*
X158697198Y-43845906D01*
X158125549Y-44417555D01*
X158744836Y-44417555D01*
X173144355Y-43918571D02*
X173361022Y-43918571D01*
X173411319Y-44259047D02*
X173101796Y-44259047D01*
X173183046Y-43609047D01*
X173492569Y-43609047D01*
X173662808Y-44228095D02*
X173751796Y-44259047D01*
X173906558Y-44259047D01*
X173972331Y-44228095D01*
X174007153Y-44197142D01*
X174045843Y-44135238D01*
X174053581Y-44073333D01*
X174030367Y-44011428D01*
X174003284Y-43980476D01*
X173945248Y-43949523D01*
X173825308Y-43918571D01*
X173767272Y-43887619D01*
X173740188Y-43856666D01*
X173716974Y-43794761D01*
X173724712Y-43732857D01*
X173763403Y-43670952D01*
X173798224Y-43640000D01*
X173863998Y-43609047D01*
X174018760Y-43609047D01*
X174107748Y-43640000D01*
X174308938Y-44259047D02*
X174390188Y-43609047D01*
X174637808Y-43609047D01*
X174695843Y-43640000D01*
X174722927Y-43670952D01*
X174746141Y-43732857D01*
X174734534Y-43825714D01*
X174695843Y-43887619D01*
X174661022Y-43918571D01*
X174595248Y-43949523D01*
X174347629Y-43949523D01*
X174978284Y-43609047D02*
X175380665Y-43609047D01*
X175133046Y-43856666D01*
X175225903Y-43856666D01*
X175283938Y-43887619D01*
X175311022Y-43918571D01*
X175334236Y-43980476D01*
X175314891Y-44135238D01*
X175276200Y-44197142D01*
X175241379Y-44228095D01*
X175175605Y-44259047D01*
X174989891Y-44259047D01*
X174931855Y-44228095D01*
X174904772Y-44197142D01*
X175620546Y-43670952D02*
X175655367Y-43640000D01*
X175721141Y-43609047D01*
X175875903Y-43609047D01*
X175933938Y-43640000D01*
X175961022Y-43670952D01*
X175984236Y-43732857D01*
X175976498Y-43794761D01*
X175933938Y-43887619D01*
X175516081Y-44259047D01*
X175918462Y-44259047D01*
X176227986Y-44011428D02*
X176723224Y-44011428D01*
X177001796Y-44259047D02*
X177083046Y-43609047D01*
X177237808Y-43609047D01*
X177326796Y-43640000D01*
X177380962Y-43701904D01*
X177404177Y-43763809D01*
X177419653Y-43887619D01*
X177408046Y-43980476D01*
X177361617Y-44104285D01*
X177322927Y-44166190D01*
X177253284Y-44228095D01*
X177156558Y-44259047D01*
X177001796Y-44259047D01*
X177694355Y-43918571D02*
X177911022Y-43918571D01*
X177961319Y-44259047D02*
X177651796Y-44259047D01*
X177733046Y-43609047D01*
X178042569Y-43609047D01*
X178228284Y-43609047D02*
X178363700Y-44259047D01*
X178661617Y-43609047D01*
X178797034Y-44259047D02*
X178878284Y-43609047D01*
X179168462Y-44259047D02*
X178936319Y-43887619D01*
X179249712Y-43609047D02*
X178831855Y-43980476D01*
X179447034Y-44259047D02*
X179528284Y-43609047D01*
X179744950Y-43609047D02*
X180116379Y-43609047D01*
X179849415Y-44259047D02*
X179930665Y-43609047D01*
X180630962Y-44197142D02*
X180596141Y-44228095D01*
X180499415Y-44259047D01*
X180437510Y-44259047D01*
X180348522Y-44228095D01*
X180294355Y-44166190D01*
X180271141Y-44104285D01*
X180255665Y-43980476D01*
X180267272Y-43887619D01*
X180313700Y-43763809D01*
X180352391Y-43701904D01*
X180422034Y-43640000D01*
X180518760Y-43609047D01*
X180580665Y-43609047D01*
X180669653Y-43640000D01*
X180696736Y-43670952D01*
X180932748Y-44011428D02*
X181427986Y-44011428D01*
X181725903Y-43609047D02*
X182128284Y-43609047D01*
X181880665Y-43856666D01*
X181973522Y-43856666D01*
X182031558Y-43887619D01*
X182058641Y-43918571D01*
X182081855Y-43980476D01*
X182062510Y-44135238D01*
X182023819Y-44197142D01*
X181988998Y-44228095D01*
X181923224Y-44259047D01*
X181737510Y-44259047D01*
X181679474Y-44228095D01*
X181652391Y-44197142D01*
X182368165Y-43670952D02*
X182402986Y-43640000D01*
X182468760Y-43609047D01*
X182623522Y-43609047D01*
X182681558Y-43640000D01*
X182708641Y-43670952D01*
X182731855Y-43732857D01*
X182724117Y-43794761D01*
X182681558Y-43887619D01*
X182263700Y-44259047D01*
X182666081Y-44259047D01*
X182944653Y-44259047D02*
X183025903Y-43609047D01*
X183180665Y-43609047D01*
X183269653Y-43640000D01*
X183323819Y-43701904D01*
X183347034Y-43763809D01*
X183362510Y-43887619D01*
X183350903Y-43980476D01*
X183304474Y-44104285D01*
X183265784Y-44166190D01*
X183196141Y-44228095D01*
X183099415Y-44259047D01*
X182944653Y-44259047D01*
X169485833Y-63562380D02*
X169152500Y-63086190D01*
X168914404Y-63562380D02*
X168914404Y-62562380D01*
X169295357Y-62562380D01*
X169390595Y-62610000D01*
X169438214Y-62657619D01*
X169485833Y-62752857D01*
X169485833Y-62895714D01*
X169438214Y-62990952D01*
X169390595Y-63038571D01*
X169295357Y-63086190D01*
X168914404Y-63086190D01*
X170438214Y-63562380D02*
X169866785Y-63562380D01*
X170152500Y-63562380D02*
X170152500Y-62562380D01*
X170057261Y-62705238D01*
X169962023Y-62800476D01*
X169866785Y-62848095D01*
X168465069Y-67494047D02*
X168867450Y-67494047D01*
X168619831Y-67741666D01*
X168712688Y-67741666D01*
X168770724Y-67772619D01*
X168797808Y-67803571D01*
X168821022Y-67865476D01*
X168801677Y-68020238D01*
X168762986Y-68082142D01*
X168728165Y-68113095D01*
X168662391Y-68144047D01*
X168476677Y-68144047D01*
X168418641Y-68113095D01*
X168391558Y-68082142D01*
X169084117Y-67494047D02*
X169486498Y-67494047D01*
X169238879Y-67741666D01*
X169331736Y-67741666D01*
X169389772Y-67772619D01*
X169416855Y-67803571D01*
X169440069Y-67865476D01*
X169420724Y-68020238D01*
X169382034Y-68082142D01*
X169347212Y-68113095D01*
X169281438Y-68144047D01*
X169095724Y-68144047D01*
X169037688Y-68113095D01*
X169010605Y-68082142D01*
X169888879Y-67494047D02*
X169950784Y-67494047D01*
X170008819Y-67525000D01*
X170035903Y-67555952D01*
X170059117Y-67617857D01*
X170074593Y-67741666D01*
X170055248Y-67896428D01*
X170008819Y-68020238D01*
X169970129Y-68082142D01*
X169935308Y-68113095D01*
X169869534Y-68144047D01*
X169807629Y-68144047D01*
X169749593Y-68113095D01*
X169722510Y-68082142D01*
X169699296Y-68020238D01*
X169683819Y-67896428D01*
X169703165Y-67741666D01*
X169749593Y-67617857D01*
X169788284Y-67555952D01*
X169823105Y-67525000D01*
X169888879Y-67494047D01*
X170271915Y-68144047D02*
X170426677Y-68144047D01*
X170442153Y-68020238D01*
X170384117Y-67989285D01*
X170329950Y-67927380D01*
X170310605Y-67834523D01*
X170329950Y-67679761D01*
X170372510Y-67586904D01*
X170442153Y-67525000D01*
X170538879Y-67494047D01*
X170662688Y-67494047D01*
X170751677Y-67525000D01*
X170805843Y-67586904D01*
X170825188Y-67679761D01*
X170805843Y-67834523D01*
X170763284Y-67927380D01*
X170693641Y-67989285D01*
X170627867Y-68020238D01*
X170612391Y-68144047D01*
X170767153Y-68144047D01*
X165499880Y-54811904D02*
X166309404Y-54811904D01*
X166404642Y-54764285D01*
X166452261Y-54716666D01*
X166499880Y-54621428D01*
X166499880Y-54430952D01*
X166452261Y-54335714D01*
X166404642Y-54288095D01*
X166309404Y-54240476D01*
X165499880Y-54240476D01*
X166499880Y-53240476D02*
X166499880Y-53811904D01*
X166499880Y-53526190D02*
X165499880Y-53526190D01*
X165642738Y-53621428D01*
X165737976Y-53716666D01*
X165785595Y-53811904D01*
X173541547Y-55535346D02*
X172891547Y-55454096D01*
X172891547Y-55206477D01*
X172922500Y-55148441D01*
X172953452Y-55121358D01*
X173015357Y-55098144D01*
X173108214Y-55109751D01*
X173170119Y-55148441D01*
X173201071Y-55183263D01*
X173232023Y-55249037D01*
X173232023Y-55496656D01*
X173479642Y-54506180D02*
X173510595Y-54541001D01*
X173541547Y-54637727D01*
X173541547Y-54699632D01*
X173510595Y-54788620D01*
X173448690Y-54842787D01*
X173386785Y-54866001D01*
X173262976Y-54881477D01*
X173170119Y-54869870D01*
X173046309Y-54823441D01*
X172984404Y-54784751D01*
X172922500Y-54715108D01*
X172891547Y-54618382D01*
X172891547Y-54556477D01*
X172922500Y-54467489D01*
X172953452Y-54440406D01*
X173170119Y-54096061D02*
X173139166Y-54154096D01*
X173108214Y-54181180D01*
X173046309Y-54204394D01*
X173015357Y-54200525D01*
X172953452Y-54161834D01*
X172922500Y-54127013D01*
X172891547Y-54061239D01*
X172891547Y-53937430D01*
X172922500Y-53879394D01*
X172953452Y-53852311D01*
X173015357Y-53829096D01*
X173046309Y-53832965D01*
X173108214Y-53871656D01*
X173139166Y-53906477D01*
X173170119Y-53972251D01*
X173170119Y-54096061D01*
X173201071Y-54161834D01*
X173232023Y-54196656D01*
X173293928Y-54235346D01*
X173417738Y-54250822D01*
X173479642Y-54227608D01*
X173510595Y-54200525D01*
X173541547Y-54142489D01*
X173541547Y-54018680D01*
X173510595Y-53952906D01*
X173479642Y-53918084D01*
X173417738Y-53879394D01*
X173293928Y-53863918D01*
X173232023Y-53887132D01*
X173201071Y-53914215D01*
X173170119Y-53972251D01*
X173541547Y-53275822D02*
X173541547Y-53647251D01*
X173541547Y-53461537D02*
X172891547Y-53380287D01*
X172984404Y-53453799D01*
X173046309Y-53523441D01*
X173077261Y-53589215D01*
X172891547Y-52977906D02*
X172891547Y-52544572D01*
X173541547Y-52904394D01*
X184570000Y-58515714D02*
X184522380Y-58610952D01*
X184522380Y-58753809D01*
X184570000Y-58896666D01*
X184665238Y-58991904D01*
X184760476Y-59039523D01*
X184950952Y-59087142D01*
X185093809Y-59087142D01*
X185284285Y-59039523D01*
X185379523Y-58991904D01*
X185474761Y-58896666D01*
X185522380Y-58753809D01*
X185522380Y-58658571D01*
X185474761Y-58515714D01*
X185427142Y-58468095D01*
X185093809Y-58468095D01*
X185093809Y-58658571D01*
X185522380Y-57610952D02*
X184998571Y-57610952D01*
X184903333Y-57658571D01*
X184855714Y-57753809D01*
X184855714Y-57944285D01*
X184903333Y-58039523D01*
X185474761Y-57610952D02*
X185522380Y-57706190D01*
X185522380Y-57944285D01*
X185474761Y-58039523D01*
X185379523Y-58087142D01*
X185284285Y-58087142D01*
X185189047Y-58039523D01*
X185141428Y-57944285D01*
X185141428Y-57706190D01*
X185093809Y-57610952D01*
X184855714Y-57230000D02*
X184855714Y-56706190D01*
X185522380Y-57230000D01*
X185522380Y-56706190D01*
X184855714Y-56325238D02*
X185855714Y-56325238D01*
X184903333Y-56325238D02*
X184855714Y-56230000D01*
X184855714Y-56039523D01*
X184903333Y-55944285D01*
X184950952Y-55896666D01*
X185046190Y-55849047D01*
X185331904Y-55849047D01*
X185427142Y-55896666D01*
X185474761Y-55944285D01*
X185522380Y-56039523D01*
X185522380Y-56230000D01*
X185474761Y-56325238D01*
X185522380Y-54991904D02*
X184998571Y-54991904D01*
X184903333Y-55039523D01*
X184855714Y-55134761D01*
X184855714Y-55325238D01*
X184903333Y-55420476D01*
X185474761Y-54991904D02*
X185522380Y-55087142D01*
X185522380Y-55325238D01*
X185474761Y-55420476D01*
X185379523Y-55468095D01*
X185284285Y-55468095D01*
X185189047Y-55420476D01*
X185141428Y-55325238D01*
X185141428Y-55087142D01*
X185093809Y-54991904D01*
X185522380Y-54515714D02*
X184855714Y-54515714D01*
X185046190Y-54515714D02*
X184950952Y-54468095D01*
X184903333Y-54420476D01*
X184855714Y-54325238D01*
X184855714Y-54230000D01*
X185522380Y-53372857D02*
X185522380Y-53944285D01*
X185522380Y-53658571D02*
X184522380Y-53658571D01*
X184665238Y-53753809D01*
X184760476Y-53849047D01*
X184808095Y-53944285D01*
X171544880Y-85966666D02*
X171068690Y-86300000D01*
X171544880Y-86538095D02*
X170544880Y-86538095D01*
X170544880Y-86157142D01*
X170592500Y-86061904D01*
X170640119Y-86014285D01*
X170735357Y-85966666D01*
X170878214Y-85966666D01*
X170973452Y-86014285D01*
X171021071Y-86061904D01*
X171068690Y-86157142D01*
X171068690Y-86538095D01*
X170640119Y-85585714D02*
X170592500Y-85538095D01*
X170544880Y-85442857D01*
X170544880Y-85204761D01*
X170592500Y-85109523D01*
X170640119Y-85061904D01*
X170735357Y-85014285D01*
X170830595Y-85014285D01*
X170973452Y-85061904D01*
X171544880Y-85633333D01*
X171544880Y-85014285D01*
X176126547Y-86310346D02*
X176126547Y-86681775D01*
X176126547Y-86496061D02*
X175476547Y-86414811D01*
X175569404Y-86488322D01*
X175631309Y-86557965D01*
X175662261Y-86623739D01*
X176126547Y-86031775D02*
X175476547Y-85950525D01*
X175878928Y-85938918D02*
X176126547Y-85784156D01*
X175693214Y-85729989D02*
X175940833Y-86008561D01*
X176126547Y-85536537D02*
X176126547Y-85381775D01*
X176002738Y-85366299D01*
X175971785Y-85424334D01*
X175909880Y-85478501D01*
X175817023Y-85497846D01*
X175662261Y-85478501D01*
X175569404Y-85435941D01*
X175507500Y-85366299D01*
X175476547Y-85269572D01*
X175476547Y-85145763D01*
X175507500Y-85056775D01*
X175569404Y-85002608D01*
X175662261Y-84983263D01*
X175817023Y-85002608D01*
X175909880Y-85045168D01*
X175971785Y-85114811D01*
X176002738Y-85180584D01*
X176126547Y-85196061D01*
X176126547Y-85041299D01*
D12*
X191806000Y-89320000D02*
X191650000Y-89320000D01*
X189490000Y-89320000D02*
X189334000Y-89320000D01*
X191648608Y-92552335D02*
G75*
G03*
X191805516Y-89320000I-1078608J1672335D01*
G01*
X189334484Y-89320000D02*
G75*
G03*
X189491392Y-92552335I1235516J-1560000D01*
G01*
X191649837Y-91921130D02*
G75*
G03*
X191650000Y-89839039I-1079837J1041130D01*
G01*
X189490000Y-89839039D02*
G75*
G03*
X189490163Y-91921130I1080000J-1040961D01*
G01*
X171772500Y-71980000D02*
X167532500Y-71980000D01*
X168252500Y-71980000D02*
X168252500Y-74220000D01*
X172422500Y-73100000D02*
X171772500Y-73100000D01*
X167532500Y-71980000D02*
X167532500Y-74220000D01*
X167532500Y-74220000D02*
X171772500Y-74220000D01*
X171772500Y-74220000D02*
X171772500Y-71980000D01*
X166882500Y-73100000D02*
X167532500Y-73100000D01*
X168132500Y-71980000D02*
X168132500Y-74220000D01*
X168372500Y-71980000D02*
X168372500Y-74220000D01*
D13*
X156050000Y-42850000D02*
X183950000Y-42850000D01*
X156050000Y-97250000D02*
X156050000Y-42850000D01*
X183950000Y-97250000D02*
X156050000Y-97250000D01*
X183950000Y-42850000D02*
X183950000Y-97250000D01*
D12*
X166382500Y-64110000D02*
X172922500Y-64110000D01*
X166382500Y-64440000D02*
X166382500Y-64110000D01*
X166382500Y-66850000D02*
X172922500Y-66850000D01*
X172922500Y-66850000D02*
X172922500Y-66520000D01*
X166382500Y-66520000D02*
X166382500Y-66850000D01*
X172922500Y-64110000D02*
X172922500Y-64440000D01*
X172247500Y-51400000D02*
X167047500Y-51400000D01*
X167047500Y-56700000D02*
X172247500Y-56700000D01*
X167047500Y-51400000D02*
X167047500Y-53050000D01*
X167047500Y-55050000D02*
X167047500Y-56700000D01*
X172247500Y-56700000D02*
X172247500Y-51400000D01*
X167047500Y-55050000D02*
G75*
G03*
X167047500Y-53050000I0J1000000D01*
G01*
X193745000Y-58800000D02*
X193745000Y-48640000D01*
X193745000Y-48640000D02*
X186125000Y-48640000D01*
X187395000Y-58800000D02*
X187395000Y-48640000D01*
X186125000Y-48640000D02*
X186125000Y-58800000D01*
X186125000Y-58800000D02*
X193745000Y-58800000D01*
X172092500Y-82530000D02*
X172422500Y-82530000D01*
X174832500Y-82530000D02*
X174502500Y-82530000D01*
X172422500Y-89070000D02*
X172092500Y-89070000D01*
X174832500Y-89070000D02*
X174832500Y-82530000D01*
X172092500Y-89070000D02*
X172092500Y-82530000D01*
X174502500Y-89070000D02*
X174832500Y-89070000D01*
M02*
