%TF.GenerationSoftware,KiCad,Pcbnew,6.0.10+dfsg-1~bpo11+1*%
%TF.CreationDate,2023-02-14T21:12:36+00:00*%
%TF.ProjectId,Gazpar,47617a70-6172-42e6-9b69-6361645f7063,rev?*%
%TF.SameCoordinates,Original*%
%TF.FileFunction,AssemblyDrawing,Bot*%
%FSLAX45Y45*%
G04 Gerber Fmt 4.5, Leading zero omitted, Abs format (unit mm)*
G04 Created by KiCad (PCBNEW 6.0.10+dfsg-1~bpo11+1) date 2023-02-14 21:12:36*
%MOMM*%
%LPD*%
G01*
G04 APERTURE LIST*
%TA.AperFunction,Profile*%
%ADD10C,0.050000*%
%TD*%
%ADD11C,0.150000*%
G04 APERTURE END LIST*
D10*
X15000000Y-4100000D02*
X15000000Y-10000000D01*
X15000000Y-4100000D02*
X19400000Y-4100000D01*
X19400000Y-4100000D02*
X19400000Y-10000000D01*
X15000000Y-10000000D02*
X19400000Y-10000000D01*
D11*
X19176190Y-9745238D02*
X19176190Y-9645238D01*
X19176190Y-9692857D02*
X19119048Y-9692857D01*
X19119048Y-9745238D02*
X19119048Y-9645238D01*
X19076190Y-9654762D02*
X19071429Y-9650000D01*
X19061905Y-9645238D01*
X19038095Y-9645238D01*
X19028571Y-9650000D01*
X19023810Y-9654762D01*
X19019048Y-9664286D01*
X19019048Y-9673810D01*
X19023810Y-9688095D01*
X19080952Y-9745238D01*
X19019048Y-9745238D01*
X19176190Y-4445238D02*
X19176190Y-4345238D01*
X19176190Y-4392857D02*
X19119048Y-4392857D01*
X19119048Y-4445238D02*
X19119048Y-4345238D01*
X19080952Y-4345238D02*
X19019048Y-4345238D01*
X19052381Y-4383333D01*
X19038095Y-4383333D01*
X19028571Y-4388095D01*
X19023810Y-4392857D01*
X19019048Y-4402381D01*
X19019048Y-4426190D01*
X19023810Y-4435714D01*
X19028571Y-4440476D01*
X19038095Y-4445238D01*
X19066667Y-4445238D01*
X19076190Y-4440476D01*
X19080952Y-4435714D01*
X15376190Y-4445238D02*
X15376190Y-4345238D01*
X15376190Y-4392857D02*
X15319048Y-4392857D01*
X15319048Y-4445238D02*
X15319048Y-4345238D01*
X15228571Y-4378571D02*
X15228571Y-4445238D01*
X15252381Y-4340476D02*
X15276190Y-4411905D01*
X15214286Y-4411905D01*
X15376190Y-9745238D02*
X15376190Y-9645238D01*
X15376190Y-9692857D02*
X15319048Y-9692857D01*
X15319048Y-9745238D02*
X15319048Y-9645238D01*
X15219048Y-9745238D02*
X15276190Y-9745238D01*
X15247619Y-9745238D02*
X15247619Y-9645238D01*
X15257143Y-9659524D01*
X15266667Y-9669048D01*
X15276190Y-9673810D01*
M02*
