%TF.GenerationSoftware,KiCad,Pcbnew,6.0.10+dfsg-1~bpo11+1*%
%TF.CreationDate,2023-02-14T21:12:36+00:00*%
%TF.ProjectId,Gazpar,47617a70-6172-42e6-9b69-6361645f7063,rev?*%
%TF.SameCoordinates,Original*%
%TF.FileFunction,Legend,Top*%
%TF.FilePolarity,Positive*%
%FSLAX45Y45*%
G04 Gerber Fmt 4.5, Leading zero omitted, Abs format (unit mm)*
G04 Created by KiCad (PCBNEW 6.0.10+dfsg-1~bpo11+1) date 2023-02-14 21:12:36*
%MOMM*%
%LPD*%
G01*
G04 APERTURE LIST*
%TA.AperFunction,Profile*%
%ADD10C,0.050000*%
%TD*%
%ADD11C,0.150000*%
%ADD12C,0.500000*%
%ADD13C,0.120000*%
%ADD14C,0.127000*%
%ADD15R,1.800000X1.800000*%
%ADD16C,1.800000*%
%ADD17R,1.600000X1.600000*%
%ADD18O,1.600000X1.600000*%
%ADD19R,1.560000X1.560000*%
%ADD20C,1.560000*%
%ADD21C,1.600000*%
%ADD22R,3.000000X3.000000*%
%ADD23C,3.000000*%
%ADD24C,2.900000*%
G04 APERTURE END LIST*
D10*
X15000000Y-4100000D02*
X15000000Y-10000000D01*
X15000000Y-4100000D02*
X19400000Y-4100000D01*
X19400000Y-4100000D02*
X19400000Y-10000000D01*
X15000000Y-10000000D02*
X19400000Y-10000000D01*
D11*
X18793894Y-6036405D02*
X18802019Y-5971405D01*
X18817495Y-5971405D01*
X18826394Y-5974500D01*
X18831811Y-5980690D01*
X18834132Y-5986881D01*
X18835680Y-5999262D01*
X18834519Y-6008548D01*
X18829876Y-6020928D01*
X18826007Y-6027119D01*
X18819043Y-6033309D01*
X18809370Y-6036405D01*
X18793894Y-6036405D01*
X18886751Y-6036405D02*
X18891007Y-6002357D01*
X18888686Y-5996167D01*
X18882882Y-5993071D01*
X18870501Y-5993071D01*
X18863924Y-5996167D01*
X18887138Y-6033309D02*
X18880561Y-6036405D01*
X18865084Y-6036405D01*
X18859281Y-6033309D01*
X18856959Y-6027119D01*
X18857733Y-6020928D01*
X18861602Y-6014738D01*
X18868180Y-6011643D01*
X18883656Y-6011643D01*
X18890233Y-6008548D01*
X18913834Y-5993071D02*
X18938596Y-5993071D01*
X18925828Y-5971405D02*
X18918864Y-6027119D01*
X18921186Y-6033309D01*
X18926989Y-6036405D01*
X18933180Y-6036405D01*
X18982703Y-6036405D02*
X18986959Y-6002357D01*
X18984638Y-5996167D01*
X18978834Y-5993071D01*
X18966453Y-5993071D01*
X18959876Y-5996167D01*
X18983090Y-6033309D02*
X18976513Y-6036405D01*
X18961037Y-6036405D01*
X18955233Y-6033309D01*
X18952912Y-6027119D01*
X18953686Y-6020928D01*
X18957555Y-6014738D01*
X18964132Y-6011643D01*
X18979608Y-6011643D01*
X18986186Y-6008548D01*
X19078656Y-6061167D02*
X19075947Y-6058071D01*
X19070918Y-6048786D01*
X19068596Y-6042595D01*
X19066662Y-6033309D01*
X19065501Y-6017833D01*
X19067049Y-6005452D01*
X19072078Y-5989976D01*
X19076334Y-5980690D01*
X19080203Y-5974500D01*
X19087555Y-5965214D01*
X19091037Y-5962119D01*
X19110769Y-5977595D02*
X19114251Y-5974500D01*
X19120828Y-5971405D01*
X19136305Y-5971405D01*
X19142108Y-5974500D01*
X19144817Y-5977595D01*
X19147138Y-5983786D01*
X19146364Y-5989976D01*
X19142108Y-5999262D01*
X19100322Y-6036405D01*
X19140561Y-6036405D01*
X19159132Y-6061167D02*
X19162614Y-6058071D01*
X19169965Y-6048786D01*
X19173834Y-6042595D01*
X19178090Y-6033309D01*
X19183120Y-6017833D01*
X19184668Y-6005452D01*
X19183507Y-5989976D01*
X19181572Y-5980690D01*
X19179251Y-5974500D01*
X19174221Y-5965214D01*
X19171513Y-5962119D01*
D12*
X17315500Y-5633928D02*
X17305976Y-5643452D01*
X17315500Y-5652976D01*
X17325024Y-5643452D01*
X17315500Y-5633928D01*
X17315500Y-5652976D01*
D11*
X18862013Y-4740500D02*
X18856209Y-4737405D01*
X18846924Y-4737405D01*
X18837251Y-4740500D01*
X18830287Y-4746690D01*
X18826418Y-4752881D01*
X18821775Y-4765262D01*
X18820614Y-4774548D01*
X18822162Y-4786929D01*
X18824483Y-4793119D01*
X18829900Y-4799310D01*
X18838799Y-4802405D01*
X18844989Y-4802405D01*
X18854662Y-4799310D01*
X18858144Y-4796214D01*
X18860852Y-4774548D01*
X18848471Y-4774548D01*
X18885227Y-4802405D02*
X18893352Y-4737405D01*
X18922370Y-4802405D01*
X18930495Y-4737405D01*
X18953322Y-4802405D02*
X18961447Y-4737405D01*
X18976924Y-4737405D01*
X18985822Y-4740500D01*
X18991239Y-4746690D01*
X18993561Y-4752881D01*
X18995108Y-4765262D01*
X18993947Y-4774548D01*
X18989305Y-4786929D01*
X18985436Y-4793119D01*
X18978471Y-4799310D01*
X18968799Y-4802405D01*
X18953322Y-4802405D01*
X19083322Y-4827167D02*
X19080614Y-4824071D01*
X19075584Y-4814786D01*
X19073263Y-4808595D01*
X19071328Y-4799310D01*
X19070168Y-4783833D01*
X19071715Y-4771452D01*
X19076745Y-4755976D01*
X19081001Y-4746690D01*
X19084870Y-4740500D01*
X19092221Y-4731214D01*
X19095703Y-4728119D01*
X19145227Y-4802405D02*
X19108084Y-4802405D01*
X19126656Y-4802405D02*
X19134781Y-4737405D01*
X19127430Y-4746690D01*
X19120465Y-4752881D01*
X19113888Y-4755976D01*
X19163799Y-4827167D02*
X19167281Y-4824071D01*
X19174632Y-4814786D01*
X19178501Y-4808595D01*
X19182757Y-4799310D01*
X19187787Y-4783833D01*
X19189334Y-4771452D01*
X19188174Y-4755976D01*
X19186239Y-4746690D01*
X19183918Y-4740500D01*
X19178888Y-4731214D01*
X19176180Y-4728119D01*
X18983190Y-8752738D02*
X18983190Y-8652738D01*
X19007000Y-8652738D01*
X19021286Y-8657500D01*
X19030810Y-8667024D01*
X19035571Y-8676548D01*
X19040333Y-8695595D01*
X19040333Y-8709881D01*
X19035571Y-8728929D01*
X19030810Y-8738452D01*
X19021286Y-8747976D01*
X19007000Y-8752738D01*
X18983190Y-8752738D01*
X19078429Y-8662262D02*
X19083190Y-8657500D01*
X19092714Y-8652738D01*
X19116524Y-8652738D01*
X19126048Y-8657500D01*
X19130810Y-8662262D01*
X19135571Y-8671786D01*
X19135571Y-8681310D01*
X19130810Y-8695595D01*
X19073667Y-8752738D01*
X19135571Y-8752738D01*
X18768905Y-9136439D02*
X18768905Y-9167392D01*
X18703905Y-9159267D01*
X18734857Y-9110517D02*
X18734857Y-9088850D01*
X18768905Y-9083820D02*
X18768905Y-9114773D01*
X18703905Y-9106648D01*
X18703905Y-9075695D01*
X18768905Y-9055963D02*
X18703905Y-9047838D01*
X18703905Y-9032362D01*
X18707000Y-9023463D01*
X18713190Y-9018047D01*
X18719381Y-9015725D01*
X18731762Y-9014178D01*
X18741048Y-9015338D01*
X18753429Y-9019981D01*
X18759619Y-9023850D01*
X18765810Y-9030814D01*
X18768905Y-9040487D01*
X18768905Y-9055963D01*
X16891440Y-7609238D02*
X16891440Y-7509238D01*
X16915250Y-7509238D01*
X16929536Y-7514000D01*
X16939060Y-7523524D01*
X16943821Y-7533048D01*
X16948583Y-7552095D01*
X16948583Y-7566381D01*
X16943821Y-7585428D01*
X16939060Y-7594952D01*
X16929536Y-7604476D01*
X16915250Y-7609238D01*
X16891440Y-7609238D01*
X17043821Y-7609238D02*
X16986679Y-7609238D01*
X17015250Y-7609238D02*
X17015250Y-7509238D01*
X17005726Y-7523524D01*
X16996202Y-7533048D01*
X16986679Y-7537809D01*
X16819811Y-7085405D02*
X16782668Y-7085405D01*
X16801239Y-7085405D02*
X16809364Y-7020405D01*
X16802013Y-7029690D01*
X16795049Y-7035881D01*
X16788471Y-7038976D01*
X16847668Y-7085405D02*
X16855793Y-7020405D01*
X16884811Y-7085405D01*
X16892936Y-7020405D01*
X16949037Y-7042071D02*
X16943620Y-7085405D01*
X16936656Y-7017309D02*
X16915376Y-7063738D01*
X16955614Y-7063738D01*
X17011715Y-7085405D02*
X16974572Y-7085405D01*
X16993144Y-7085405D02*
X17001269Y-7020405D01*
X16993918Y-7029690D01*
X16986953Y-7035881D01*
X16980376Y-7038976D01*
X17072846Y-7042071D02*
X17067430Y-7085405D01*
X17060465Y-7017309D02*
X17039186Y-7063738D01*
X17079424Y-7063738D01*
X17115406Y-7048262D02*
X17109602Y-7045167D01*
X17106894Y-7042071D01*
X17104572Y-7035881D01*
X17104959Y-7032786D01*
X17108828Y-7026595D01*
X17112311Y-7023500D01*
X17118888Y-7020405D01*
X17131269Y-7020405D01*
X17137072Y-7023500D01*
X17139781Y-7026595D01*
X17142102Y-7032786D01*
X17141715Y-7035881D01*
X17137846Y-7042071D01*
X17134364Y-7045167D01*
X17127787Y-7048262D01*
X17115406Y-7048262D01*
X17108828Y-7051357D01*
X17105346Y-7054452D01*
X17101477Y-7060643D01*
X17099930Y-7073024D01*
X17102251Y-7079214D01*
X17104959Y-7082309D01*
X17110763Y-7085405D01*
X17123144Y-7085405D01*
X17129721Y-7082309D01*
X17133203Y-7079214D01*
X17137072Y-7073024D01*
X17138620Y-7060643D01*
X17136299Y-7054452D01*
X17133590Y-7051357D01*
X17127787Y-7048262D01*
X15717280Y-4341717D02*
X15717280Y-4422701D01*
X15722044Y-4432228D01*
X15726808Y-4436992D01*
X15736335Y-4441756D01*
X15755390Y-4441756D01*
X15764917Y-4436992D01*
X15769681Y-4432228D01*
X15774445Y-4422701D01*
X15774445Y-4341717D01*
X15817319Y-4351244D02*
X15822082Y-4346481D01*
X15831610Y-4341717D01*
X15855429Y-4341717D01*
X15864956Y-4346481D01*
X15869720Y-4351244D01*
X15874484Y-4360772D01*
X15874484Y-4370299D01*
X15869720Y-4384591D01*
X15812555Y-4441756D01*
X15874484Y-4441756D01*
X17314436Y-4391857D02*
X17336102Y-4391857D01*
X17341132Y-4425905D02*
X17310180Y-4425905D01*
X17318305Y-4360905D01*
X17349257Y-4360905D01*
X17366281Y-4422810D02*
X17375180Y-4425905D01*
X17390656Y-4425905D01*
X17397233Y-4422810D01*
X17400715Y-4419714D01*
X17404584Y-4413524D01*
X17405358Y-4407333D01*
X17403037Y-4401143D01*
X17400328Y-4398048D01*
X17394525Y-4394952D01*
X17382531Y-4391857D01*
X17376727Y-4388762D01*
X17374019Y-4385667D01*
X17371697Y-4379476D01*
X17372471Y-4373286D01*
X17376340Y-4367095D01*
X17379822Y-4364000D01*
X17386400Y-4360905D01*
X17401876Y-4360905D01*
X17410775Y-4364000D01*
X17430894Y-4425905D02*
X17439019Y-4360905D01*
X17463781Y-4360905D01*
X17469584Y-4364000D01*
X17472293Y-4367095D01*
X17474614Y-4373286D01*
X17473453Y-4382571D01*
X17469584Y-4388762D01*
X17466102Y-4391857D01*
X17459525Y-4394952D01*
X17434763Y-4394952D01*
X17497828Y-4360905D02*
X17538067Y-4360905D01*
X17513305Y-4385667D01*
X17522590Y-4385667D01*
X17528394Y-4388762D01*
X17531102Y-4391857D01*
X17533424Y-4398048D01*
X17531489Y-4413524D01*
X17527620Y-4419714D01*
X17524138Y-4422810D01*
X17517561Y-4425905D01*
X17498989Y-4425905D01*
X17493186Y-4422810D01*
X17490477Y-4419714D01*
X17562055Y-4367095D02*
X17565537Y-4364000D01*
X17572114Y-4360905D01*
X17587590Y-4360905D01*
X17593394Y-4364000D01*
X17596102Y-4367095D01*
X17598424Y-4373286D01*
X17597650Y-4379476D01*
X17593394Y-4388762D01*
X17551608Y-4425905D01*
X17591846Y-4425905D01*
X17622799Y-4401143D02*
X17672322Y-4401143D01*
X17700180Y-4425905D02*
X17708305Y-4360905D01*
X17723781Y-4360905D01*
X17732680Y-4364000D01*
X17738096Y-4370190D01*
X17740418Y-4376381D01*
X17741965Y-4388762D01*
X17740805Y-4398048D01*
X17736162Y-4410429D01*
X17732293Y-4416619D01*
X17725328Y-4422810D01*
X17715656Y-4425905D01*
X17700180Y-4425905D01*
X17769436Y-4391857D02*
X17791102Y-4391857D01*
X17796132Y-4425905D02*
X17765180Y-4425905D01*
X17773305Y-4360905D01*
X17804257Y-4360905D01*
X17822828Y-4360905D02*
X17836370Y-4425905D01*
X17866162Y-4360905D01*
X17879703Y-4425905D02*
X17887828Y-4360905D01*
X17916846Y-4425905D02*
X17893632Y-4388762D01*
X17924971Y-4360905D02*
X17883186Y-4398048D01*
X17944703Y-4425905D02*
X17952828Y-4360905D01*
X17974495Y-4360905D02*
X18011638Y-4360905D01*
X17984942Y-4425905D02*
X17993067Y-4360905D01*
X18063096Y-4419714D02*
X18059614Y-4422810D01*
X18049942Y-4425905D01*
X18043751Y-4425905D01*
X18034852Y-4422810D01*
X18029436Y-4416619D01*
X18027114Y-4410429D01*
X18025567Y-4398048D01*
X18026727Y-4388762D01*
X18031370Y-4376381D01*
X18035239Y-4370190D01*
X18042203Y-4364000D01*
X18051876Y-4360905D01*
X18058067Y-4360905D01*
X18066965Y-4364000D01*
X18069674Y-4367095D01*
X18093275Y-4401143D02*
X18142799Y-4401143D01*
X18172590Y-4360905D02*
X18212828Y-4360905D01*
X18188067Y-4385667D01*
X18197352Y-4385667D01*
X18203156Y-4388762D01*
X18205864Y-4391857D01*
X18208186Y-4398048D01*
X18206251Y-4413524D01*
X18202382Y-4419714D01*
X18198900Y-4422810D01*
X18192322Y-4425905D01*
X18173751Y-4425905D01*
X18167947Y-4422810D01*
X18165239Y-4419714D01*
X18236817Y-4367095D02*
X18240299Y-4364000D01*
X18246876Y-4360905D01*
X18262352Y-4360905D01*
X18268156Y-4364000D01*
X18270864Y-4367095D01*
X18273186Y-4373286D01*
X18272412Y-4379476D01*
X18268156Y-4388762D01*
X18226370Y-4425905D01*
X18266608Y-4425905D01*
X18294465Y-4425905D02*
X18302590Y-4360905D01*
X18318067Y-4360905D01*
X18326965Y-4364000D01*
X18332382Y-4370190D01*
X18334703Y-4376381D01*
X18336251Y-4388762D01*
X18335090Y-4398048D01*
X18330447Y-4410429D01*
X18326578Y-4416619D01*
X18319614Y-4422810D01*
X18309942Y-4425905D01*
X18294465Y-4425905D01*
X16948583Y-6356238D02*
X16915250Y-6308619D01*
X16891440Y-6356238D02*
X16891440Y-6256238D01*
X16929536Y-6256238D01*
X16939060Y-6261000D01*
X16943821Y-6265762D01*
X16948583Y-6275286D01*
X16948583Y-6289571D01*
X16943821Y-6299095D01*
X16939060Y-6303857D01*
X16929536Y-6308619D01*
X16891440Y-6308619D01*
X17043821Y-6356238D02*
X16986679Y-6356238D01*
X17015250Y-6356238D02*
X17015250Y-6256238D01*
X17005726Y-6270524D01*
X16996202Y-6280048D01*
X16986679Y-6284809D01*
X16846507Y-6749405D02*
X16886745Y-6749405D01*
X16861983Y-6774167D01*
X16871269Y-6774167D01*
X16877072Y-6777262D01*
X16879781Y-6780357D01*
X16882102Y-6786548D01*
X16880168Y-6802024D01*
X16876299Y-6808214D01*
X16872817Y-6811309D01*
X16866239Y-6814405D01*
X16847668Y-6814405D01*
X16841864Y-6811309D01*
X16839156Y-6808214D01*
X16908412Y-6749405D02*
X16948650Y-6749405D01*
X16923888Y-6774167D01*
X16933174Y-6774167D01*
X16938977Y-6777262D01*
X16941686Y-6780357D01*
X16944007Y-6786548D01*
X16942072Y-6802024D01*
X16938203Y-6808214D01*
X16934721Y-6811309D01*
X16928144Y-6814405D01*
X16909572Y-6814405D01*
X16903769Y-6811309D01*
X16901061Y-6808214D01*
X16988888Y-6749405D02*
X16995078Y-6749405D01*
X17000882Y-6752500D01*
X17003590Y-6755595D01*
X17005912Y-6761786D01*
X17007459Y-6774167D01*
X17005525Y-6789643D01*
X17000882Y-6802024D01*
X16997013Y-6808214D01*
X16993531Y-6811309D01*
X16986953Y-6814405D01*
X16980763Y-6814405D01*
X16974959Y-6811309D01*
X16972251Y-6808214D01*
X16969930Y-6802024D01*
X16968382Y-6789643D01*
X16970317Y-6774167D01*
X16974959Y-6761786D01*
X16978828Y-6755595D01*
X16982311Y-6752500D01*
X16988888Y-6749405D01*
X17027192Y-6814405D02*
X17042668Y-6814405D01*
X17044215Y-6802024D01*
X17038412Y-6798928D01*
X17032995Y-6792738D01*
X17031061Y-6783452D01*
X17032995Y-6767976D01*
X17037251Y-6758690D01*
X17044215Y-6752500D01*
X17053888Y-6749405D01*
X17066269Y-6749405D01*
X17075168Y-6752500D01*
X17080584Y-6758690D01*
X17082519Y-6767976D01*
X17080584Y-6783452D01*
X17076328Y-6792738D01*
X17069364Y-6798928D01*
X17062787Y-6802024D01*
X17061239Y-6814405D01*
X17076715Y-6814405D01*
X16549988Y-5481190D02*
X16630940Y-5481190D01*
X16640464Y-5476429D01*
X16645226Y-5471667D01*
X16649988Y-5462143D01*
X16649988Y-5443095D01*
X16645226Y-5433571D01*
X16640464Y-5428810D01*
X16630940Y-5424048D01*
X16549988Y-5424048D01*
X16649988Y-5324048D02*
X16649988Y-5381190D01*
X16649988Y-5352619D02*
X16549988Y-5352619D01*
X16564274Y-5362143D01*
X16573798Y-5371667D01*
X16578559Y-5381190D01*
X17354155Y-5553535D02*
X17289155Y-5545410D01*
X17289155Y-5520648D01*
X17292250Y-5514844D01*
X17295345Y-5512136D01*
X17301536Y-5509814D01*
X17310821Y-5510975D01*
X17317012Y-5514844D01*
X17320107Y-5518326D01*
X17323202Y-5524904D01*
X17323202Y-5549666D01*
X17347964Y-5450618D02*
X17351060Y-5454100D01*
X17354155Y-5463773D01*
X17354155Y-5469963D01*
X17351060Y-5478862D01*
X17344869Y-5484279D01*
X17338679Y-5486600D01*
X17326298Y-5488148D01*
X17317012Y-5486987D01*
X17304631Y-5482344D01*
X17298440Y-5478475D01*
X17292250Y-5471511D01*
X17289155Y-5461838D01*
X17289155Y-5455648D01*
X17292250Y-5446749D01*
X17295345Y-5444041D01*
X17317012Y-5409606D02*
X17313917Y-5415410D01*
X17310821Y-5418118D01*
X17304631Y-5420439D01*
X17301536Y-5420053D01*
X17295345Y-5416183D01*
X17292250Y-5412701D01*
X17289155Y-5406124D01*
X17289155Y-5393743D01*
X17292250Y-5387939D01*
X17295345Y-5385231D01*
X17301536Y-5382910D01*
X17304631Y-5383297D01*
X17310821Y-5387166D01*
X17313917Y-5390648D01*
X17317012Y-5397225D01*
X17317012Y-5409606D01*
X17320107Y-5416183D01*
X17323202Y-5419666D01*
X17329393Y-5423535D01*
X17341774Y-5425082D01*
X17347964Y-5422761D01*
X17351060Y-5420053D01*
X17354155Y-5414249D01*
X17354155Y-5401868D01*
X17351060Y-5395291D01*
X17347964Y-5391808D01*
X17341774Y-5387939D01*
X17329393Y-5386392D01*
X17323202Y-5388713D01*
X17320107Y-5391422D01*
X17317012Y-5397225D01*
X17354155Y-5327582D02*
X17354155Y-5364725D01*
X17354155Y-5346154D02*
X17289155Y-5338029D01*
X17298440Y-5345380D01*
X17304631Y-5352344D01*
X17307726Y-5358922D01*
X17289155Y-5297791D02*
X17289155Y-5254457D01*
X17354155Y-5290439D01*
X18457000Y-5851571D02*
X18452238Y-5861095D01*
X18452238Y-5875381D01*
X18457000Y-5889667D01*
X18466524Y-5899190D01*
X18476048Y-5903952D01*
X18495095Y-5908714D01*
X18509381Y-5908714D01*
X18528429Y-5903952D01*
X18537952Y-5899190D01*
X18547476Y-5889667D01*
X18552238Y-5875381D01*
X18552238Y-5865857D01*
X18547476Y-5851571D01*
X18542714Y-5846809D01*
X18509381Y-5846809D01*
X18509381Y-5865857D01*
X18552238Y-5761095D02*
X18499857Y-5761095D01*
X18490333Y-5765857D01*
X18485571Y-5775381D01*
X18485571Y-5794428D01*
X18490333Y-5803952D01*
X18547476Y-5761095D02*
X18552238Y-5770619D01*
X18552238Y-5794428D01*
X18547476Y-5803952D01*
X18537952Y-5808714D01*
X18528429Y-5808714D01*
X18518905Y-5803952D01*
X18514143Y-5794428D01*
X18514143Y-5770619D01*
X18509381Y-5761095D01*
X18485571Y-5723000D02*
X18485571Y-5670619D01*
X18552238Y-5723000D01*
X18552238Y-5670619D01*
X18485571Y-5632524D02*
X18585571Y-5632524D01*
X18490333Y-5632524D02*
X18485571Y-5623000D01*
X18485571Y-5603952D01*
X18490333Y-5594428D01*
X18495095Y-5589667D01*
X18504619Y-5584905D01*
X18533190Y-5584905D01*
X18542714Y-5589667D01*
X18547476Y-5594428D01*
X18552238Y-5603952D01*
X18552238Y-5623000D01*
X18547476Y-5632524D01*
X18552238Y-5499190D02*
X18499857Y-5499190D01*
X18490333Y-5503952D01*
X18485571Y-5513476D01*
X18485571Y-5532524D01*
X18490333Y-5542048D01*
X18547476Y-5499190D02*
X18552238Y-5508714D01*
X18552238Y-5532524D01*
X18547476Y-5542048D01*
X18537952Y-5546810D01*
X18528429Y-5546810D01*
X18518905Y-5542048D01*
X18514143Y-5532524D01*
X18514143Y-5508714D01*
X18509381Y-5499190D01*
X18552238Y-5451571D02*
X18485571Y-5451571D01*
X18504619Y-5451571D02*
X18495095Y-5446810D01*
X18490333Y-5442048D01*
X18485571Y-5432524D01*
X18485571Y-5423000D01*
X18552238Y-5337286D02*
X18552238Y-5394429D01*
X18552238Y-5365857D02*
X18452238Y-5365857D01*
X18466524Y-5375381D01*
X18476048Y-5384905D01*
X18480810Y-5394429D01*
X17154488Y-8596667D02*
X17106869Y-8630000D01*
X17154488Y-8653810D02*
X17054488Y-8653810D01*
X17054488Y-8615714D01*
X17059250Y-8606190D01*
X17064012Y-8601429D01*
X17073536Y-8596667D01*
X17087821Y-8596667D01*
X17097345Y-8601429D01*
X17102107Y-8606190D01*
X17106869Y-8615714D01*
X17106869Y-8653810D01*
X17064012Y-8558571D02*
X17059250Y-8553810D01*
X17054488Y-8544286D01*
X17054488Y-8520476D01*
X17059250Y-8510952D01*
X17064012Y-8506190D01*
X17073536Y-8501429D01*
X17083060Y-8501429D01*
X17097345Y-8506190D01*
X17154488Y-8563333D01*
X17154488Y-8501429D01*
X17612655Y-8631035D02*
X17612655Y-8668178D01*
X17612655Y-8649606D02*
X17547655Y-8641481D01*
X17556940Y-8648832D01*
X17563131Y-8655797D01*
X17566226Y-8662374D01*
X17612655Y-8603178D02*
X17547655Y-8595053D01*
X17587893Y-8593892D02*
X17612655Y-8578416D01*
X17569321Y-8572999D02*
X17594083Y-8600856D01*
X17612655Y-8553654D02*
X17612655Y-8538178D01*
X17600274Y-8536630D01*
X17597179Y-8542433D01*
X17590988Y-8547850D01*
X17581702Y-8549785D01*
X17566226Y-8547850D01*
X17556940Y-8543594D01*
X17550750Y-8536630D01*
X17547655Y-8526957D01*
X17547655Y-8514576D01*
X17550750Y-8505678D01*
X17556940Y-8500261D01*
X17566226Y-8498326D01*
X17581702Y-8500261D01*
X17590988Y-8504517D01*
X17597179Y-8511481D01*
X17600274Y-8518058D01*
X17612655Y-8519606D01*
X17612655Y-8504130D01*
D13*
X19180600Y-8932000D02*
X19165000Y-8932000D01*
X18949000Y-8932000D02*
X18933400Y-8932000D01*
X19164861Y-9255234D02*
G75*
G03*
X19180552Y-8932000I-107861J167234D01*
G01*
X18933448Y-8932000D02*
G75*
G03*
X18949139Y-9255234I123552J-156000D01*
G01*
X19164984Y-9192113D02*
G75*
G03*
X19165000Y-8983904I-107984J104113D01*
G01*
X18949000Y-8983904D02*
G75*
G03*
X18949016Y-9192113I108000J-104096D01*
G01*
X17177250Y-7198000D02*
X16753250Y-7198000D01*
X16825250Y-7198000D02*
X16825250Y-7422000D01*
X17242250Y-7310000D02*
X17177250Y-7310000D01*
X16753250Y-7198000D02*
X16753250Y-7422000D01*
X16753250Y-7422000D02*
X17177250Y-7422000D01*
X17177250Y-7422000D02*
X17177250Y-7198000D01*
X16688250Y-7310000D02*
X16753250Y-7310000D01*
X16813250Y-7198000D02*
X16813250Y-7422000D01*
X16837250Y-7198000D02*
X16837250Y-7422000D01*
D14*
X15605000Y-4285000D02*
X18395000Y-4285000D01*
X15605000Y-9725000D02*
X15605000Y-4285000D01*
X18395000Y-9725000D02*
X15605000Y-9725000D01*
X18395000Y-4285000D02*
X18395000Y-9725000D01*
D13*
X16638250Y-6411000D02*
X17292250Y-6411000D01*
X16638250Y-6444000D02*
X16638250Y-6411000D01*
X16638250Y-6685000D02*
X17292250Y-6685000D01*
X17292250Y-6685000D02*
X17292250Y-6652000D01*
X16638250Y-6652000D02*
X16638250Y-6685000D01*
X17292250Y-6411000D02*
X17292250Y-6444000D01*
X17224750Y-5140000D02*
X16704750Y-5140000D01*
X16704750Y-5670000D02*
X17224750Y-5670000D01*
X16704750Y-5140000D02*
X16704750Y-5305000D01*
X16704750Y-5505000D02*
X16704750Y-5670000D01*
X17224750Y-5670000D02*
X17224750Y-5140000D01*
X16704750Y-5505000D02*
G75*
G03*
X16704750Y-5305000I0J100000D01*
G01*
X19374500Y-5880000D02*
X19374500Y-4864000D01*
X19374500Y-4864000D02*
X18612500Y-4864000D01*
X18739500Y-5880000D02*
X18739500Y-4864000D01*
X18612500Y-4864000D02*
X18612500Y-5880000D01*
X18612500Y-5880000D02*
X19374500Y-5880000D01*
X17209250Y-8253000D02*
X17242250Y-8253000D01*
X17483250Y-8253000D02*
X17450250Y-8253000D01*
X17242250Y-8907000D02*
X17209250Y-8907000D01*
X17483250Y-8907000D02*
X17483250Y-8253000D01*
X17209250Y-8907000D02*
X17209250Y-8253000D01*
X17450250Y-8907000D02*
X17483250Y-8907000D01*
%LPC*%
D15*
X19057000Y-8961000D03*
D16*
X19057000Y-9215000D03*
D17*
X16584250Y-7310000D03*
D18*
X17346250Y-7310000D03*
D19*
X15730000Y-5024000D03*
D20*
X15730000Y-5278000D03*
X15730000Y-5532000D03*
X15730000Y-5786000D03*
X15730000Y-6040000D03*
X15730000Y-6294000D03*
X15730000Y-6548000D03*
X15730000Y-6802000D03*
X15730000Y-7056000D03*
X15730000Y-7310000D03*
X15730000Y-7564000D03*
X15730000Y-7818000D03*
X15730000Y-8072000D03*
X15730000Y-8326000D03*
X15730000Y-8580000D03*
X15730000Y-8834000D03*
X15730000Y-9088000D03*
X15730000Y-9342000D03*
X15730000Y-9596000D03*
X18270000Y-5024000D03*
X18270000Y-5278000D03*
X18270000Y-5532000D03*
X18270000Y-5786000D03*
X18270000Y-6040000D03*
X18270000Y-6294000D03*
X18270000Y-6548000D03*
X18270000Y-6802000D03*
X18270000Y-7056000D03*
X18270000Y-7310000D03*
X18270000Y-7564000D03*
X18270000Y-7818000D03*
X18270000Y-8072000D03*
X18270000Y-8326000D03*
X18270000Y-8580000D03*
X18270000Y-8834000D03*
X18270000Y-9088000D03*
X18270000Y-9342000D03*
X18270000Y-9596000D03*
D21*
X16584250Y-6548000D03*
D18*
X17346250Y-6548000D03*
D17*
X16837750Y-5786000D03*
D18*
X17091750Y-5786000D03*
X17091750Y-5024000D03*
X16837750Y-5024000D03*
D22*
X18993500Y-5118000D03*
D23*
X18993500Y-5626000D03*
D21*
X17346250Y-8961000D03*
D18*
X17346250Y-8199000D03*
D24*
X19100000Y-9700000D03*
X19100000Y-4400000D03*
X15300000Y-4400000D03*
X15300000Y-9700000D03*
M02*
