%TF.GenerationSoftware,KiCad,Pcbnew,6.0.10+dfsg-1~bpo11+1*%
%TF.CreationDate,2023-02-14T21:12:36+00:00*%
%TF.ProjectId,Gazpar,47617a70-6172-42e6-9b69-6361645f7063,rev?*%
%TF.SameCoordinates,Original*%
%TF.FileFunction,Copper,L2,Bot*%
%TF.FilePolarity,Positive*%
%FSLAX45Y45*%
G04 Gerber Fmt 4.5, Leading zero omitted, Abs format (unit mm)*
G04 Created by KiCad (PCBNEW 6.0.10+dfsg-1~bpo11+1) date 2023-02-14 21:12:36*
%MOMM*%
%LPD*%
G01*
G04 APERTURE LIST*
%TA.AperFunction,Profile*%
%ADD10C,0.050000*%
%TD*%
%TA.AperFunction,ComponentPad*%
%ADD11R,1.800000X1.800000*%
%TD*%
%TA.AperFunction,ComponentPad*%
%ADD12C,1.800000*%
%TD*%
%TA.AperFunction,ComponentPad*%
%ADD13R,1.600000X1.600000*%
%TD*%
%TA.AperFunction,ComponentPad*%
%ADD14O,1.600000X1.600000*%
%TD*%
%TA.AperFunction,ComponentPad*%
%ADD15R,1.560000X1.560000*%
%TD*%
%TA.AperFunction,ComponentPad*%
%ADD16C,1.560000*%
%TD*%
%TA.AperFunction,ComponentPad*%
%ADD17C,1.600000*%
%TD*%
%TA.AperFunction,ComponentPad*%
%ADD18R,3.000000X3.000000*%
%TD*%
%TA.AperFunction,ComponentPad*%
%ADD19C,3.000000*%
%TD*%
%TA.AperFunction,ComponentPad*%
%ADD20C,2.900000*%
%TD*%
%TA.AperFunction,ConnectorPad*%
%ADD21C,5.000000*%
%TD*%
%TA.AperFunction,Conductor*%
%ADD22C,0.400000*%
%TD*%
G04 APERTURE END LIST*
D10*
X15000000Y-4100000D02*
X15000000Y-10000000D01*
X15000000Y-4100000D02*
X19400000Y-4100000D01*
X19400000Y-4100000D02*
X19400000Y-10000000D01*
X15000000Y-10000000D02*
X19400000Y-10000000D01*
D11*
X19057000Y-8961000D03*
D12*
X19057000Y-9215000D03*
D13*
X16584250Y-7310000D03*
D14*
X17346250Y-7310000D03*
D15*
X15730000Y-5024000D03*
D16*
X15730000Y-5278000D03*
X15730000Y-5532000D03*
X15730000Y-5786000D03*
X15730000Y-6040000D03*
X15730000Y-6294000D03*
X15730000Y-6548000D03*
X15730000Y-6802000D03*
X15730000Y-7056000D03*
X15730000Y-7310000D03*
X15730000Y-7564000D03*
X15730000Y-7818000D03*
X15730000Y-8072000D03*
X15730000Y-8326000D03*
X15730000Y-8580000D03*
X15730000Y-8834000D03*
X15730000Y-9088000D03*
X15730000Y-9342000D03*
X15730000Y-9596000D03*
X18270000Y-5024000D03*
X18270000Y-5278000D03*
X18270000Y-5532000D03*
X18270000Y-5786000D03*
X18270000Y-6040000D03*
X18270000Y-6294000D03*
X18270000Y-6548000D03*
X18270000Y-6802000D03*
X18270000Y-7056000D03*
X18270000Y-7310000D03*
X18270000Y-7564000D03*
X18270000Y-7818000D03*
X18270000Y-8072000D03*
X18270000Y-8326000D03*
X18270000Y-8580000D03*
X18270000Y-8834000D03*
X18270000Y-9088000D03*
X18270000Y-9342000D03*
X18270000Y-9596000D03*
D17*
X16584250Y-6548000D03*
D14*
X17346250Y-6548000D03*
D13*
X16837750Y-5786000D03*
D14*
X17091750Y-5786000D03*
X17091750Y-5024000D03*
X16837750Y-5024000D03*
D18*
X18993500Y-5118000D03*
D19*
X18993500Y-5626000D03*
D17*
X17346250Y-8961000D03*
D14*
X17346250Y-8199000D03*
D20*
X19100000Y-9700000D03*
D21*
X19100000Y-9700000D03*
X19100000Y-4400000D03*
D20*
X19100000Y-4400000D03*
X15300000Y-4400000D03*
D21*
X15300000Y-4400000D03*
D20*
X15300000Y-9700000D03*
D21*
X15300000Y-9700000D03*
D22*
X16837750Y-5786000D02*
X16837750Y-6039500D01*
X16837750Y-6039500D02*
X17346250Y-6548000D01*
X19057000Y-8961000D02*
X17346250Y-8961000D01*
X16756000Y-6434000D02*
X16623000Y-6301000D01*
X16712750Y-5149000D02*
X16837750Y-5024000D01*
X16584250Y-7310000D02*
X16756000Y-7138250D01*
X16623000Y-6301000D02*
X16623000Y-5235000D01*
X16584250Y-7310000D02*
X16584250Y-7437000D01*
X16756000Y-7138250D02*
X16756000Y-6434000D01*
X16709000Y-5149000D02*
X16712750Y-5149000D01*
X16584250Y-7437000D02*
X17346250Y-8199000D01*
X16623000Y-5235000D02*
X16709000Y-5149000D01*
X18755000Y-5542500D02*
X18755000Y-5765000D01*
X19193000Y-5118000D02*
X18993500Y-5118000D01*
X17730500Y-5147000D02*
X18359500Y-5147000D01*
X18755000Y-5765000D02*
X18880000Y-5890000D01*
X17608250Y-5269500D02*
X17608250Y-5269250D01*
X17608250Y-5269250D02*
X17730500Y-5147000D01*
X18359500Y-5147000D02*
X18755000Y-5542500D01*
X19155000Y-5890000D02*
X19280000Y-5765000D01*
X17091750Y-5786000D02*
X17608250Y-5269500D01*
X18880000Y-5890000D02*
X19155000Y-5890000D01*
X19280000Y-5205000D02*
X19193000Y-5118000D01*
X19280000Y-5765000D02*
X19280000Y-5205000D01*
X17346250Y-7310000D02*
X17864000Y-6792250D01*
X17864000Y-5351000D02*
X17937000Y-5278000D01*
X17937000Y-5278000D02*
X18270000Y-5278000D01*
X17864000Y-6792250D02*
X17864000Y-5351000D01*
X16507000Y-9215000D02*
X16111000Y-9215000D01*
X16397000Y-6735250D02*
X16397000Y-9105000D01*
X16584250Y-6548000D02*
X16397000Y-6735250D01*
X16397000Y-9105000D02*
X16507000Y-9215000D01*
X16111000Y-9215000D02*
X15730000Y-9596000D01*
X16507000Y-9215000D02*
X19057000Y-9215000D01*
X18391500Y-5024000D02*
X18993500Y-5626000D01*
X17091750Y-5024000D02*
X18270000Y-5024000D01*
X18270000Y-5024000D02*
X18391500Y-5024000D01*
M02*
