%TF.GenerationSoftware,KiCad,Pcbnew,6.0.10+dfsg-1~bpo11+1*%
%TF.CreationDate,2023-02-14T21:12:36+00:00*%
%TF.ProjectId,Gazpar,47617a70-6172-42e6-9b69-6361645f7063,rev?*%
%TF.SameCoordinates,Original*%
%TF.FileFunction,AssemblyDrawing,Top*%
%FSLAX45Y45*%
G04 Gerber Fmt 4.5, Leading zero omitted, Abs format (unit mm)*
G04 Created by KiCad (PCBNEW 6.0.10+dfsg-1~bpo11+1) date 2023-02-14 21:12:36*
%MOMM*%
%LPD*%
G01*
G04 APERTURE LIST*
%TA.AperFunction,Profile*%
%ADD10C,0.050000*%
%TD*%
%ADD11C,0.150000*%
%ADD12C,0.120000*%
%ADD13C,0.100000*%
%ADD14C,0.127000*%
%ADD15C,0.280000*%
G04 APERTURE END LIST*
D10*
X15000000Y-4100000D02*
X15000000Y-10000000D01*
X15000000Y-4100000D02*
X19400000Y-4100000D01*
X19400000Y-4100000D02*
X19400000Y-10000000D01*
X15000000Y-10000000D02*
X19400000Y-10000000D01*
D11*
X16558059Y-7175238D02*
X16558059Y-7075238D01*
X16615202Y-7175238D02*
X16572345Y-7118095D01*
X16615202Y-7075238D02*
X16558059Y-7132381D01*
D12*
X16936202Y-7346190D02*
X16936202Y-7266190D01*
X16955250Y-7266190D01*
X16966679Y-7270000D01*
X16974298Y-7277619D01*
X16978107Y-7285238D01*
X16981917Y-7300476D01*
X16981917Y-7311905D01*
X16978107Y-7327143D01*
X16974298Y-7334762D01*
X16966679Y-7342381D01*
X16955250Y-7346190D01*
X16936202Y-7346190D01*
X17058107Y-7346190D02*
X17012393Y-7346190D01*
X17035250Y-7346190D02*
X17035250Y-7266190D01*
X17027631Y-7277619D01*
X17020012Y-7285238D01*
X17012393Y-7289048D01*
D11*
X16948583Y-6593238D02*
X16915250Y-6545619D01*
X16891440Y-6593238D02*
X16891440Y-6493238D01*
X16929536Y-6493238D01*
X16939060Y-6498000D01*
X16943821Y-6502762D01*
X16948583Y-6512286D01*
X16948583Y-6526571D01*
X16943821Y-6536095D01*
X16939060Y-6540857D01*
X16929536Y-6545619D01*
X16891440Y-6545619D01*
X17043821Y-6593238D02*
X16986679Y-6593238D01*
X17015250Y-6593238D02*
X17015250Y-6493238D01*
X17005726Y-6507524D01*
X16996202Y-6517048D01*
X16986679Y-6521809D01*
X16909988Y-5481190D02*
X16990940Y-5481190D01*
X17000464Y-5476429D01*
X17005226Y-5471667D01*
X17009988Y-5462143D01*
X17009988Y-5443095D01*
X17005226Y-5433571D01*
X17000464Y-5428810D01*
X16990940Y-5424048D01*
X16909988Y-5424048D01*
X17009988Y-5324048D02*
X17009988Y-5381190D01*
X17009988Y-5352619D02*
X16909988Y-5352619D01*
X16924274Y-5362143D01*
X16933798Y-5371667D01*
X16938560Y-5381190D01*
X18535500Y-4963214D02*
X18530738Y-4972738D01*
X18530738Y-4987024D01*
X18535500Y-5001310D01*
X18545024Y-5010833D01*
X18554548Y-5015595D01*
X18573595Y-5020357D01*
X18587881Y-5020357D01*
X18606929Y-5015595D01*
X18616452Y-5010833D01*
X18625976Y-5001310D01*
X18630738Y-4987024D01*
X18630738Y-4977500D01*
X18625976Y-4963214D01*
X18621214Y-4958452D01*
X18587881Y-4958452D01*
X18587881Y-4977500D01*
X18592643Y-4915595D02*
X18592643Y-4839405D01*
X18943500Y-5600571D02*
X18938738Y-5610095D01*
X18938738Y-5624381D01*
X18943500Y-5638667D01*
X18953024Y-5648190D01*
X18962548Y-5652952D01*
X18981595Y-5657714D01*
X18995881Y-5657714D01*
X19014929Y-5652952D01*
X19024452Y-5648190D01*
X19033976Y-5638667D01*
X19038738Y-5624381D01*
X19038738Y-5614857D01*
X19033976Y-5600571D01*
X19029214Y-5595809D01*
X18995881Y-5595809D01*
X18995881Y-5614857D01*
X19038738Y-5510095D02*
X18986357Y-5510095D01*
X18976833Y-5514857D01*
X18972071Y-5524381D01*
X18972071Y-5543429D01*
X18976833Y-5552952D01*
X19033976Y-5510095D02*
X19038738Y-5519619D01*
X19038738Y-5543429D01*
X19033976Y-5552952D01*
X19024452Y-5557714D01*
X19014929Y-5557714D01*
X19005405Y-5552952D01*
X19000643Y-5543429D01*
X19000643Y-5519619D01*
X18995881Y-5510095D01*
X18972071Y-5472000D02*
X18972071Y-5419619D01*
X19038738Y-5472000D01*
X19038738Y-5419619D01*
X18972071Y-5381524D02*
X19072071Y-5381524D01*
X18976833Y-5381524D02*
X18972071Y-5372000D01*
X18972071Y-5352952D01*
X18976833Y-5343429D01*
X18981595Y-5338667D01*
X18991119Y-5333905D01*
X19019690Y-5333905D01*
X19029214Y-5338667D01*
X19033976Y-5343429D01*
X19038738Y-5352952D01*
X19038738Y-5372000D01*
X19033976Y-5381524D01*
X19038738Y-5248190D02*
X18986357Y-5248190D01*
X18976833Y-5252952D01*
X18972071Y-5262476D01*
X18972071Y-5281524D01*
X18976833Y-5291048D01*
X19033976Y-5248190D02*
X19038738Y-5257714D01*
X19038738Y-5281524D01*
X19033976Y-5291048D01*
X19024452Y-5295810D01*
X19014929Y-5295810D01*
X19005405Y-5291048D01*
X19000643Y-5281524D01*
X19000643Y-5257714D01*
X18995881Y-5248190D01*
X19038738Y-5200571D02*
X18972071Y-5200571D01*
X18991119Y-5200571D02*
X18981595Y-5195810D01*
X18976833Y-5191048D01*
X18972071Y-5181524D01*
X18972071Y-5172000D01*
X19038738Y-5086286D02*
X19038738Y-5143429D01*
X19038738Y-5114857D02*
X18938738Y-5114857D01*
X18953024Y-5124381D01*
X18962548Y-5133905D01*
X18967310Y-5143429D01*
X17391488Y-8596667D02*
X17343869Y-8630000D01*
X17391488Y-8653810D02*
X17291488Y-8653810D01*
X17291488Y-8615714D01*
X17296250Y-8606190D01*
X17301012Y-8601429D01*
X17310536Y-8596667D01*
X17324821Y-8596667D01*
X17334345Y-8601429D01*
X17339107Y-8606190D01*
X17343869Y-8615714D01*
X17343869Y-8653810D01*
X17301012Y-8558571D02*
X17296250Y-8553810D01*
X17291488Y-8544286D01*
X17291488Y-8520476D01*
X17296250Y-8510952D01*
X17301012Y-8506190D01*
X17310536Y-8501429D01*
X17320060Y-8501429D01*
X17334345Y-8506190D01*
X17391488Y-8563333D01*
X17391488Y-8501429D01*
D13*
X19173619Y-8938000D02*
X18940381Y-8938000D01*
X18940452Y-8937945D02*
G75*
G03*
X19173619Y-8938000I116548J-150056D01*
G01*
X19207000Y-9088000D02*
G75*
G03*
X19207000Y-9088000I-150000J0D01*
G01*
X17346250Y-7310000D02*
X17165250Y-7310000D01*
X16765250Y-7410000D02*
X17165250Y-7410000D01*
X16584250Y-7310000D02*
X16765250Y-7310000D01*
X17165250Y-7210000D02*
X16765250Y-7210000D01*
X17165250Y-7410000D02*
X17165250Y-7210000D01*
X16825250Y-7210000D02*
X16825250Y-7410000D01*
X16765250Y-7210000D02*
X16765250Y-7410000D01*
X16835250Y-7210000D02*
X16835250Y-7410000D01*
X16815250Y-7210000D02*
X16815250Y-7410000D01*
D14*
X18395000Y-9725000D02*
X15605000Y-9725000D01*
X18395000Y-4285000D02*
X18395000Y-9725000D01*
X15605000Y-4285000D02*
X18395000Y-4285000D01*
X15605000Y-9725000D02*
X15605000Y-4285000D01*
D15*
X15554000Y-5010000D02*
G75*
G03*
X15554000Y-5010000I-14000J0D01*
G01*
X15554000Y-5010000D02*
G75*
G03*
X15554000Y-5010000I-14000J0D01*
G01*
D13*
X16584250Y-6548000D02*
X16650250Y-6548000D01*
X16650250Y-6673000D02*
X17280250Y-6673000D01*
X17346250Y-6548000D02*
X17280250Y-6548000D01*
X16650250Y-6423000D02*
X16650250Y-6673000D01*
X17280250Y-6423000D02*
X16650250Y-6423000D01*
X17280250Y-6673000D02*
X17280250Y-6423000D01*
X17218750Y-5087500D02*
X17218750Y-5722500D01*
X16810750Y-5722500D02*
X16710750Y-5622500D01*
X16710750Y-5622500D02*
X16710750Y-5087500D01*
X17218750Y-5722500D02*
X16810750Y-5722500D01*
X16710750Y-5087500D02*
X17218750Y-5087500D01*
X18618500Y-4872000D02*
X18618500Y-5872000D01*
X18618500Y-5872000D02*
X19368500Y-5872000D01*
X19368500Y-5872000D02*
X19368500Y-4872000D01*
X19368500Y-4872000D02*
X18618500Y-4872000D01*
X18738500Y-4877000D02*
X18738500Y-5867000D01*
X17471250Y-8895000D02*
X17471250Y-8265000D01*
X17346250Y-8199000D02*
X17346250Y-8265000D01*
X17471250Y-8265000D02*
X17221250Y-8265000D01*
X17221250Y-8265000D02*
X17221250Y-8895000D01*
X17346250Y-8961000D02*
X17346250Y-8895000D01*
X17221250Y-8895000D02*
X17471250Y-8895000D01*
M02*
