%TF.GenerationSoftware,KiCad,Pcbnew,6.0.10+dfsg-1~bpo11+1*%
%TF.CreationDate,2023-02-14T21:12:36+00:00*%
%TF.ProjectId,Gazpar,47617a70-6172-42e6-9b69-6361645f7063,rev?*%
%TF.SameCoordinates,Original*%
%TF.FileFunction,Plated,1,2,PTH,Drill*%
%TF.FilePolarity,Positive*%
%FSLAX46Y46*%
G04 Gerber Fmt 4.6, Leading zero omitted, Abs format (unit mm)*
G04 Created by KiCad (PCBNEW 6.0.10+dfsg-1~bpo11+1) date 2023-02-14 21:12:36*
%MOMM*%
%LPD*%
G01*
G04 APERTURE LIST*
%TA.AperFunction,ComponentDrill*%
%ADD10C,0.800000*%
%TD*%
%TA.AperFunction,ComponentDrill*%
%ADD11C,0.900000*%
%TD*%
%TA.AperFunction,ComponentDrill*%
%ADD12C,1.040000*%
%TD*%
%TA.AperFunction,ComponentDrill*%
%ADD13C,1.520000*%
%TD*%
%TA.AperFunction,ComponentDrill*%
%ADD14C,2.500000*%
%TD*%
G04 APERTURE END LIST*
D10*
%TO.C,R1*%
X165842500Y-65480000D03*
%TO.C,D1*%
X165842500Y-73100000D03*
%TO.C,U1*%
X168377500Y-50240000D03*
X168377500Y-57860000D03*
X170917500Y-50240000D03*
X170917500Y-57860000D03*
%TO.C,R1*%
X173462500Y-65480000D03*
%TO.C,D1*%
X173462500Y-73100000D03*
%TO.C,R2*%
X173462500Y-81990000D03*
X173462500Y-89610000D03*
D11*
%TO.C,D2*%
X190570000Y-89610000D03*
X190570000Y-92150000D03*
D12*
%TO.C,U2*%
X157300000Y-50240000D03*
X157300000Y-52780000D03*
X157300000Y-55320000D03*
X157300000Y-57860000D03*
X157300000Y-60400000D03*
X157300000Y-62940000D03*
X157300000Y-65480000D03*
X157300000Y-68020000D03*
X157300000Y-70560000D03*
X157300000Y-73100000D03*
X157300000Y-75640000D03*
X157300000Y-78180000D03*
X157300000Y-80720000D03*
X157300000Y-83260000D03*
X157300000Y-85800000D03*
X157300000Y-88340000D03*
X157300000Y-90880000D03*
X157300000Y-93420000D03*
X157300000Y-95960000D03*
X182700000Y-50240000D03*
X182700000Y-52780000D03*
X182700000Y-55320000D03*
X182700000Y-57860000D03*
X182700000Y-60400000D03*
X182700000Y-62940000D03*
X182700000Y-65480000D03*
X182700000Y-68020000D03*
X182700000Y-70560000D03*
X182700000Y-73100000D03*
X182700000Y-75640000D03*
X182700000Y-78180000D03*
X182700000Y-80720000D03*
X182700000Y-83260000D03*
X182700000Y-85800000D03*
X182700000Y-88340000D03*
X182700000Y-90880000D03*
X182700000Y-93420000D03*
X182700000Y-95960000D03*
D13*
%TO.C,Gazpar1*%
X189935000Y-51180000D03*
X189935000Y-56260000D03*
D14*
%TO.C,H4*%
X153000000Y-44000000D03*
%TO.C,H1*%
X153000000Y-97000000D03*
%TO.C,H3*%
X191000000Y-44000000D03*
%TO.C,H2*%
X191000000Y-97000000D03*
M02*
