M48
INCH,TZ
T1C0.0315
T2C0.0354
T3C0.0409
T4C0.0598
T5C0.0984
%
G90
G05
T1
X65292Y-25780
X65292Y-28780
X66290Y-19780
X66290Y-22780
X67290Y-19780
X67290Y-22780
X68292Y-25780
X68292Y-28780
X68292Y-32280
X68292Y-35280
T2
X75028Y-35280
X75028Y-36280
T3
X61929Y-19780
X61929Y-20780
X61929Y-21780
X61929Y-22780
X61929Y-23780
X61929Y-24780
X61929Y-25780
X61929Y-26780
X61929Y-27780
X61929Y-28780
X61929Y-29780
X61929Y-30780
X61929Y-31780
X61929Y-32780
X61929Y-33780
X61929Y-34780
X61929Y-35780
X61929Y-36780
X61929Y-37780
X71929Y-19780
X71929Y-20780
X71929Y-21780
X71929Y-22780
X71929Y-23780
X71929Y-24780
X71929Y-25780
X71929Y-26780
X71929Y-27780
X71929Y-28780
X71929Y-29780
X71929Y-30780
X71929Y-31780
X71929Y-32780
X71929Y-33780
X71929Y-34780
X71929Y-35780
X71929Y-36780
X71929Y-37780
T4
X74778Y-20150
X74778Y-22150
T5
X60236Y-17323
X60236Y-38189
X75197Y-17323
X75197Y-38189
T0
M30
