G04 #@! TF.GenerationSoftware,KiCad,Pcbnew,6.0.10+dfsg-1~bpo11+1*
G04 #@! TF.CreationDate,2023-02-14T21:12:59+00:00*
G04 #@! TF.ProjectId,Gazpar,47617a70-6172-42e6-9b69-6361645f7063,rev?*
G04 #@! TF.SameCoordinates,Original*
G04 #@! TF.FileFunction,Copper,L2,Bot*
G04 #@! TF.FilePolarity,Positive*
%FSLAX46Y46*%
G04 Gerber Fmt 4.6, Leading zero omitted, Abs format (unit mm)*
G04 Created by KiCad (PCBNEW 6.0.10+dfsg-1~bpo11+1) date 2023-02-14 21:12:59*
%MOMM*%
%LPD*%
G01*
G04 APERTURE LIST*
G04 #@! TA.AperFunction,ComponentPad*
%ADD10R,1.800000X1.800000*%
G04 #@! TD*
G04 #@! TA.AperFunction,ComponentPad*
%ADD11C,1.800000*%
G04 #@! TD*
G04 #@! TA.AperFunction,ComponentPad*
%ADD12R,1.600000X1.600000*%
G04 #@! TD*
G04 #@! TA.AperFunction,ComponentPad*
%ADD13O,1.600000X1.600000*%
G04 #@! TD*
G04 #@! TA.AperFunction,ComponentPad*
%ADD14R,1.560000X1.560000*%
G04 #@! TD*
G04 #@! TA.AperFunction,ComponentPad*
%ADD15C,1.560000*%
G04 #@! TD*
G04 #@! TA.AperFunction,ComponentPad*
%ADD16C,1.600000*%
G04 #@! TD*
G04 #@! TA.AperFunction,ComponentPad*
%ADD17R,3.000000X3.000000*%
G04 #@! TD*
G04 #@! TA.AperFunction,ComponentPad*
%ADD18C,3.000000*%
G04 #@! TD*
G04 #@! TA.AperFunction,ComponentPad*
%ADD19C,2.900000*%
G04 #@! TD*
G04 #@! TA.AperFunction,ConnectorPad*
%ADD20C,5.000000*%
G04 #@! TD*
G04 #@! TA.AperFunction,Conductor*
%ADD21C,0.400000*%
G04 #@! TD*
G04 APERTURE END LIST*
D10*
X190570000Y-89610000D03*
D11*
X190570000Y-92150000D03*
D12*
X165842500Y-73100000D03*
D13*
X173462500Y-73100000D03*
D14*
X157300000Y-50240000D03*
D15*
X157300000Y-52780000D03*
X157300000Y-55320000D03*
X157300000Y-57860000D03*
X157300000Y-60400000D03*
X157300000Y-62940000D03*
X157300000Y-65480000D03*
X157300000Y-68020000D03*
X157300000Y-70560000D03*
X157300000Y-73100000D03*
X157300000Y-75640000D03*
X157300000Y-78180000D03*
X157300000Y-80720000D03*
X157300000Y-83260000D03*
X157300000Y-85800000D03*
X157300000Y-88340000D03*
X157300000Y-90880000D03*
X157300000Y-93420000D03*
X157300000Y-95960000D03*
X182700000Y-50240000D03*
X182700000Y-52780000D03*
X182700000Y-55320000D03*
X182700000Y-57860000D03*
X182700000Y-60400000D03*
X182700000Y-62940000D03*
X182700000Y-65480000D03*
X182700000Y-68020000D03*
X182700000Y-70560000D03*
X182700000Y-73100000D03*
X182700000Y-75640000D03*
X182700000Y-78180000D03*
X182700000Y-80720000D03*
X182700000Y-83260000D03*
X182700000Y-85800000D03*
X182700000Y-88340000D03*
X182700000Y-90880000D03*
X182700000Y-93420000D03*
X182700000Y-95960000D03*
D16*
X165842500Y-65480000D03*
D13*
X173462500Y-65480000D03*
D12*
X168377500Y-57860000D03*
D13*
X170917500Y-57860000D03*
X170917500Y-50240000D03*
X168377500Y-50240000D03*
D17*
X189935000Y-51180000D03*
D18*
X189935000Y-56260000D03*
D16*
X173462500Y-89610000D03*
D13*
X173462500Y-81990000D03*
D19*
X191000000Y-97000000D03*
D20*
X191000000Y-97000000D03*
X191000000Y-44000000D03*
D19*
X191000000Y-44000000D03*
X153000000Y-44000000D03*
D20*
X153000000Y-44000000D03*
D19*
X153000000Y-97000000D03*
D20*
X153000000Y-97000000D03*
D21*
X168377500Y-57860000D02*
X168377500Y-60395000D01*
X168377500Y-60395000D02*
X173462500Y-65480000D01*
X190570000Y-89610000D02*
X173462500Y-89610000D01*
X167560000Y-64340000D02*
X166230000Y-63010000D01*
X167127500Y-51490000D02*
X168377500Y-50240000D01*
X165842500Y-73100000D02*
X167560000Y-71382500D01*
X166230000Y-63010000D02*
X166230000Y-52350000D01*
X165842500Y-73100000D02*
X165842500Y-74370000D01*
X167560000Y-71382500D02*
X167560000Y-64340000D01*
X167090000Y-51490000D02*
X167127500Y-51490000D01*
X165842500Y-74370000D02*
X173462500Y-81990000D01*
X166230000Y-52350000D02*
X167090000Y-51490000D01*
X187550000Y-55425000D02*
X187550000Y-57650000D01*
X191930000Y-51180000D02*
X189935000Y-51180000D01*
X177305000Y-51470000D02*
X183595000Y-51470000D01*
X187550000Y-57650000D02*
X188800000Y-58900000D01*
X176082500Y-52695000D02*
X176082500Y-52692500D01*
X176082500Y-52692500D02*
X177305000Y-51470000D01*
X183595000Y-51470000D02*
X187550000Y-55425000D01*
X191550000Y-58900000D02*
X192800000Y-57650000D01*
X170917500Y-57860000D02*
X176082500Y-52695000D01*
X188800000Y-58900000D02*
X191550000Y-58900000D01*
X192800000Y-52050000D02*
X191930000Y-51180000D01*
X192800000Y-57650000D02*
X192800000Y-52050000D01*
X173462500Y-73100000D02*
X178640000Y-67922500D01*
X178640000Y-53510000D02*
X179370000Y-52780000D01*
X179370000Y-52780000D02*
X182700000Y-52780000D01*
X178640000Y-67922500D02*
X178640000Y-53510000D01*
X165070000Y-92150000D02*
X161110000Y-92150000D01*
X163970000Y-67352500D02*
X163970000Y-91050000D01*
X165842500Y-65480000D02*
X163970000Y-67352500D01*
X163970000Y-91050000D02*
X165070000Y-92150000D01*
X161110000Y-92150000D02*
X157300000Y-95960000D01*
X165070000Y-92150000D02*
X190570000Y-92150000D01*
X183915000Y-50240000D02*
X189935000Y-56260000D01*
X170917500Y-50240000D02*
X182700000Y-50240000D01*
X182700000Y-50240000D02*
X183915000Y-50240000D01*
M02*
