M48
; DRILL file {KiCad 6.0.10+dfsg-1~bpo11+1} date Tue Feb 14 21:12:59 2023
; FORMAT={-:-/ absolute / metric / decimal}
; #@! TF.CreationDate,2023-02-14T21:12:59+00:00
; #@! TF.GenerationSoftware,Kicad,Pcbnew,6.0.10+dfsg-1~bpo11+1
; #@! TF.FileFunction,Plated,1,2,PTH
FMAT,2
METRIC
; #@! TA.AperFunction,Plated,PTH,ComponentDrill
T1C0.800
; #@! TA.AperFunction,Plated,PTH,ComponentDrill
T2C0.900
; #@! TA.AperFunction,Plated,PTH,ComponentDrill
T3C1.040
; #@! TA.AperFunction,Plated,PTH,ComponentDrill
T4C1.520
; #@! TA.AperFunction,Plated,PTH,ComponentDrill
T5C2.500
%
G90
G05
T1
X165.843Y-65.48
X165.843Y-73.1
X168.377Y-50.24
X168.377Y-57.86
X170.917Y-50.24
X170.917Y-57.86
X173.463Y-65.48
X173.463Y-73.1
X173.463Y-81.99
X173.463Y-89.61
T2
X190.57Y-89.61
X190.57Y-92.15
T3
X157.3Y-50.24
X157.3Y-52.78
X157.3Y-55.32
X157.3Y-57.86
X157.3Y-60.4
X157.3Y-62.94
X157.3Y-65.48
X157.3Y-68.02
X157.3Y-70.56
X157.3Y-73.1
X157.3Y-75.64
X157.3Y-78.18
X157.3Y-80.72
X157.3Y-83.26
X157.3Y-85.8
X157.3Y-88.34
X157.3Y-90.88
X157.3Y-93.42
X157.3Y-95.96
X182.7Y-50.24
X182.7Y-52.78
X182.7Y-55.32
X182.7Y-57.86
X182.7Y-60.4
X182.7Y-62.94
X182.7Y-65.48
X182.7Y-68.02
X182.7Y-70.56
X182.7Y-73.1
X182.7Y-75.64
X182.7Y-78.18
X182.7Y-80.72
X182.7Y-83.26
X182.7Y-85.8
X182.7Y-88.34
X182.7Y-90.88
X182.7Y-93.42
X182.7Y-95.96
T4
X189.935Y-51.18
X189.935Y-56.26
T5
X153.0Y-44.0
X153.0Y-97.0
X191.0Y-44.0
X191.0Y-97.0
T0
M30
