%TF.GenerationSoftware,KiCad,Pcbnew,6.0.10+dfsg-1~bpo11+1*%
%TF.CreationDate,2023-02-14T21:12:59+00:00*%
%TF.ProjectId,Gazpar,47617a70-6172-42e6-9b69-6361645f7063,rev?*%
%TF.SameCoordinates,Original*%
%TF.FileFunction,Drillmap*%
%TF.FilePolarity,Positive*%
%FSLAX45Y45*%
G04 Gerber Fmt 4.5, Leading zero omitted, Abs format (unit mm)*
G04 Created by KiCad (PCBNEW 6.0.10+dfsg-1~bpo11+1) date 2023-02-14 21:12:59*
%MOMM*%
%LPD*%
G01*
G04 APERTURE LIST*
%ADD10C,0.050000*%
%ADD11C,0.200000*%
%ADD12C,0.080000*%
%ADD13C,0.090000*%
%ADD14C,0.104000*%
%ADD15C,0.152000*%
%ADD16C,0.250000*%
G04 APERTURE END LIST*
D10*
X15000000Y-4100000D02*
X15000000Y-10000000D01*
X15000000Y-4100000D02*
X19400000Y-4100000D01*
X19400000Y-4100000D02*
X19400000Y-10000000D01*
X15000000Y-10000000D02*
X19400000Y-10000000D01*
D11*
D12*
X16544250Y-6508000D02*
X16624250Y-6588000D01*
X16624250Y-6508000D02*
X16544250Y-6588000D01*
X16544250Y-7270000D02*
X16624250Y-7350000D01*
X16624250Y-7270000D02*
X16544250Y-7350000D01*
X16797750Y-4984000D02*
X16877750Y-5064000D01*
X16877750Y-4984000D02*
X16797750Y-5064000D01*
X16797750Y-5746000D02*
X16877750Y-5826000D01*
X16877750Y-5746000D02*
X16797750Y-5826000D01*
X17051750Y-4984000D02*
X17131750Y-5064000D01*
X17131750Y-4984000D02*
X17051750Y-5064000D01*
X17051750Y-5746000D02*
X17131750Y-5826000D01*
X17131750Y-5746000D02*
X17051750Y-5826000D01*
X17306250Y-6508000D02*
X17386250Y-6588000D01*
X17386250Y-6508000D02*
X17306250Y-6588000D01*
X17306250Y-7270000D02*
X17386250Y-7350000D01*
X17386250Y-7270000D02*
X17306250Y-7350000D01*
X17306250Y-8159000D02*
X17386250Y-8239000D01*
X17386250Y-8159000D02*
X17306250Y-8239000D01*
X17306250Y-8921000D02*
X17386250Y-9001000D01*
X17386250Y-8921000D02*
X17306250Y-9001000D01*
D13*
X19102000Y-8961000D02*
G75*
G03*
X19102000Y-8961000I-45000J0D01*
G01*
X19102000Y-9215000D02*
G75*
G03*
X19102000Y-9215000I-45000J0D01*
G01*
D14*
X15730000Y-4972000D02*
X15730000Y-5076000D01*
X15678000Y-5024000D02*
X15782000Y-5024000D01*
X15730000Y-5226000D02*
X15730000Y-5330000D01*
X15678000Y-5278000D02*
X15782000Y-5278000D01*
X15730000Y-5480000D02*
X15730000Y-5584000D01*
X15678000Y-5532000D02*
X15782000Y-5532000D01*
X15730000Y-5734000D02*
X15730000Y-5838000D01*
X15678000Y-5786000D02*
X15782000Y-5786000D01*
X15730000Y-5988000D02*
X15730000Y-6092000D01*
X15678000Y-6040000D02*
X15782000Y-6040000D01*
X15730000Y-6242000D02*
X15730000Y-6346000D01*
X15678000Y-6294000D02*
X15782000Y-6294000D01*
X15730000Y-6496000D02*
X15730000Y-6600000D01*
X15678000Y-6548000D02*
X15782000Y-6548000D01*
X15730000Y-6750000D02*
X15730000Y-6854000D01*
X15678000Y-6802000D02*
X15782000Y-6802000D01*
X15730000Y-7004000D02*
X15730000Y-7108000D01*
X15678000Y-7056000D02*
X15782000Y-7056000D01*
X15730000Y-7258000D02*
X15730000Y-7362000D01*
X15678000Y-7310000D02*
X15782000Y-7310000D01*
X15730000Y-7512000D02*
X15730000Y-7616000D01*
X15678000Y-7564000D02*
X15782000Y-7564000D01*
X15730000Y-7766000D02*
X15730000Y-7870000D01*
X15678000Y-7818000D02*
X15782000Y-7818000D01*
X15730000Y-8020000D02*
X15730000Y-8124000D01*
X15678000Y-8072000D02*
X15782000Y-8072000D01*
X15730000Y-8274000D02*
X15730000Y-8378000D01*
X15678000Y-8326000D02*
X15782000Y-8326000D01*
X15730000Y-8528000D02*
X15730000Y-8632000D01*
X15678000Y-8580000D02*
X15782000Y-8580000D01*
X15730000Y-8782000D02*
X15730000Y-8886000D01*
X15678000Y-8834000D02*
X15782000Y-8834000D01*
X15730000Y-9036000D02*
X15730000Y-9140000D01*
X15678000Y-9088000D02*
X15782000Y-9088000D01*
X15730000Y-9290000D02*
X15730000Y-9394000D01*
X15678000Y-9342000D02*
X15782000Y-9342000D01*
X15730000Y-9544000D02*
X15730000Y-9648000D01*
X15678000Y-9596000D02*
X15782000Y-9596000D01*
X18270000Y-4972000D02*
X18270000Y-5076000D01*
X18218000Y-5024000D02*
X18322000Y-5024000D01*
X18270000Y-5226000D02*
X18270000Y-5330000D01*
X18218000Y-5278000D02*
X18322000Y-5278000D01*
X18270000Y-5480000D02*
X18270000Y-5584000D01*
X18218000Y-5532000D02*
X18322000Y-5532000D01*
X18270000Y-5734000D02*
X18270000Y-5838000D01*
X18218000Y-5786000D02*
X18322000Y-5786000D01*
X18270000Y-5988000D02*
X18270000Y-6092000D01*
X18218000Y-6040000D02*
X18322000Y-6040000D01*
X18270000Y-6242000D02*
X18270000Y-6346000D01*
X18218000Y-6294000D02*
X18322000Y-6294000D01*
X18270000Y-6496000D02*
X18270000Y-6600000D01*
X18218000Y-6548000D02*
X18322000Y-6548000D01*
X18270000Y-6750000D02*
X18270000Y-6854000D01*
X18218000Y-6802000D02*
X18322000Y-6802000D01*
X18270000Y-7004000D02*
X18270000Y-7108000D01*
X18218000Y-7056000D02*
X18322000Y-7056000D01*
X18270000Y-7258000D02*
X18270000Y-7362000D01*
X18218000Y-7310000D02*
X18322000Y-7310000D01*
X18270000Y-7512000D02*
X18270000Y-7616000D01*
X18218000Y-7564000D02*
X18322000Y-7564000D01*
X18270000Y-7766000D02*
X18270000Y-7870000D01*
X18218000Y-7818000D02*
X18322000Y-7818000D01*
X18270000Y-8020000D02*
X18270000Y-8124000D01*
X18218000Y-8072000D02*
X18322000Y-8072000D01*
X18270000Y-8274000D02*
X18270000Y-8378000D01*
X18218000Y-8326000D02*
X18322000Y-8326000D01*
X18270000Y-8528000D02*
X18270000Y-8632000D01*
X18218000Y-8580000D02*
X18322000Y-8580000D01*
X18270000Y-8782000D02*
X18270000Y-8886000D01*
X18218000Y-8834000D02*
X18322000Y-8834000D01*
X18270000Y-9036000D02*
X18270000Y-9140000D01*
X18218000Y-9088000D02*
X18322000Y-9088000D01*
X18270000Y-9290000D02*
X18270000Y-9394000D01*
X18218000Y-9342000D02*
X18322000Y-9342000D01*
X18270000Y-9544000D02*
X18270000Y-9648000D01*
X18218000Y-9596000D02*
X18322000Y-9596000D01*
D15*
X19047241Y-5171741D02*
X19047241Y-5064259D01*
X18939759Y-5064259D01*
X18939759Y-5171741D01*
X19047241Y-5171741D01*
X19047241Y-5679741D02*
X19047241Y-5572259D01*
X18939759Y-5572259D01*
X18939759Y-5679741D01*
X19047241Y-5679741D01*
D16*
X15300000Y-4525000D02*
X15425000Y-4400000D01*
X15300000Y-4275000D01*
X15175000Y-4400000D01*
X15300000Y-4525000D01*
X15300000Y-9825000D02*
X15425000Y-9700000D01*
X15300000Y-9575000D01*
X15175000Y-9700000D01*
X15300000Y-9825000D01*
X19100000Y-4525000D02*
X19225000Y-4400000D01*
X19100000Y-4275000D01*
X18975000Y-4400000D01*
X19100000Y-4525000D01*
X19100000Y-9825000D02*
X19225000Y-9700000D01*
X19100000Y-9575000D01*
X18975000Y-9700000D01*
X19100000Y-9825000D01*
D11*
X15255119Y-10312976D02*
X15255119Y-10112976D01*
X15302738Y-10112976D01*
X15331309Y-10122500D01*
X15350357Y-10141548D01*
X15359881Y-10160595D01*
X15369405Y-10198690D01*
X15369405Y-10227262D01*
X15359881Y-10265357D01*
X15350357Y-10284405D01*
X15331309Y-10303452D01*
X15302738Y-10312976D01*
X15255119Y-10312976D01*
X15455119Y-10312976D02*
X15455119Y-10179643D01*
X15455119Y-10217738D02*
X15464643Y-10198690D01*
X15474167Y-10189167D01*
X15493214Y-10179643D01*
X15512262Y-10179643D01*
X15578928Y-10312976D02*
X15578928Y-10179643D01*
X15578928Y-10112976D02*
X15569405Y-10122500D01*
X15578928Y-10132024D01*
X15588452Y-10122500D01*
X15578928Y-10112976D01*
X15578928Y-10132024D01*
X15702738Y-10312976D02*
X15683690Y-10303452D01*
X15674167Y-10284405D01*
X15674167Y-10112976D01*
X15807500Y-10312976D02*
X15788452Y-10303452D01*
X15778928Y-10284405D01*
X15778928Y-10112976D01*
X16036071Y-10312976D02*
X16036071Y-10112976D01*
X16102738Y-10255833D01*
X16169405Y-10112976D01*
X16169405Y-10312976D01*
X16350357Y-10312976D02*
X16350357Y-10208214D01*
X16340833Y-10189167D01*
X16321786Y-10179643D01*
X16283690Y-10179643D01*
X16264643Y-10189167D01*
X16350357Y-10303452D02*
X16331309Y-10312976D01*
X16283690Y-10312976D01*
X16264643Y-10303452D01*
X16255119Y-10284405D01*
X16255119Y-10265357D01*
X16264643Y-10246310D01*
X16283690Y-10236786D01*
X16331309Y-10236786D01*
X16350357Y-10227262D01*
X16445595Y-10179643D02*
X16445595Y-10379643D01*
X16445595Y-10189167D02*
X16464643Y-10179643D01*
X16502738Y-10179643D01*
X16521786Y-10189167D01*
X16531309Y-10198690D01*
X16540833Y-10217738D01*
X16540833Y-10274881D01*
X16531309Y-10293929D01*
X16521786Y-10303452D01*
X16502738Y-10312976D01*
X16464643Y-10312976D01*
X16445595Y-10303452D01*
X16626548Y-10293929D02*
X16636071Y-10303452D01*
X16626548Y-10312976D01*
X16617024Y-10303452D01*
X16626548Y-10293929D01*
X16626548Y-10312976D01*
X16626548Y-10189167D02*
X16636071Y-10198690D01*
X16626548Y-10208214D01*
X16617024Y-10198690D01*
X16626548Y-10189167D01*
X16626548Y-10208214D01*
D12*
X14917500Y-10602500D02*
X14997500Y-10682500D01*
X14997500Y-10602500D02*
X14917500Y-10682500D01*
D11*
X15293214Y-10532976D02*
X15312262Y-10532976D01*
X15331309Y-10542500D01*
X15340833Y-10552024D01*
X15350357Y-10571071D01*
X15359881Y-10609167D01*
X15359881Y-10656786D01*
X15350357Y-10694881D01*
X15340833Y-10713929D01*
X15331309Y-10723452D01*
X15312262Y-10732976D01*
X15293214Y-10732976D01*
X15274167Y-10723452D01*
X15264643Y-10713929D01*
X15255119Y-10694881D01*
X15245595Y-10656786D01*
X15245595Y-10609167D01*
X15255119Y-10571071D01*
X15264643Y-10552024D01*
X15274167Y-10542500D01*
X15293214Y-10532976D01*
X15445595Y-10713929D02*
X15455119Y-10723452D01*
X15445595Y-10732976D01*
X15436071Y-10723452D01*
X15445595Y-10713929D01*
X15445595Y-10732976D01*
X15569405Y-10618690D02*
X15550357Y-10609167D01*
X15540833Y-10599643D01*
X15531309Y-10580595D01*
X15531309Y-10571071D01*
X15540833Y-10552024D01*
X15550357Y-10542500D01*
X15569405Y-10532976D01*
X15607500Y-10532976D01*
X15626548Y-10542500D01*
X15636071Y-10552024D01*
X15645595Y-10571071D01*
X15645595Y-10580595D01*
X15636071Y-10599643D01*
X15626548Y-10609167D01*
X15607500Y-10618690D01*
X15569405Y-10618690D01*
X15550357Y-10628214D01*
X15540833Y-10637738D01*
X15531309Y-10656786D01*
X15531309Y-10694881D01*
X15540833Y-10713929D01*
X15550357Y-10723452D01*
X15569405Y-10732976D01*
X15607500Y-10732976D01*
X15626548Y-10723452D01*
X15636071Y-10713929D01*
X15645595Y-10694881D01*
X15645595Y-10656786D01*
X15636071Y-10637738D01*
X15626548Y-10628214D01*
X15607500Y-10618690D01*
X15769405Y-10532976D02*
X15788452Y-10532976D01*
X15807500Y-10542500D01*
X15817024Y-10552024D01*
X15826548Y-10571071D01*
X15836071Y-10609167D01*
X15836071Y-10656786D01*
X15826548Y-10694881D01*
X15817024Y-10713929D01*
X15807500Y-10723452D01*
X15788452Y-10732976D01*
X15769405Y-10732976D01*
X15750357Y-10723452D01*
X15740833Y-10713929D01*
X15731309Y-10694881D01*
X15721786Y-10656786D01*
X15721786Y-10609167D01*
X15731309Y-10571071D01*
X15740833Y-10552024D01*
X15750357Y-10542500D01*
X15769405Y-10532976D01*
X15959881Y-10532976D02*
X15978928Y-10532976D01*
X15997976Y-10542500D01*
X16007500Y-10552024D01*
X16017024Y-10571071D01*
X16026548Y-10609167D01*
X16026548Y-10656786D01*
X16017024Y-10694881D01*
X16007500Y-10713929D01*
X15997976Y-10723452D01*
X15978928Y-10732976D01*
X15959881Y-10732976D01*
X15940833Y-10723452D01*
X15931309Y-10713929D01*
X15921786Y-10694881D01*
X15912262Y-10656786D01*
X15912262Y-10609167D01*
X15921786Y-10571071D01*
X15931309Y-10552024D01*
X15940833Y-10542500D01*
X15959881Y-10532976D01*
X16112262Y-10732976D02*
X16112262Y-10599643D01*
X16112262Y-10618690D02*
X16121786Y-10609167D01*
X16140833Y-10599643D01*
X16169405Y-10599643D01*
X16188452Y-10609167D01*
X16197976Y-10628214D01*
X16197976Y-10732976D01*
X16197976Y-10628214D02*
X16207500Y-10609167D01*
X16226548Y-10599643D01*
X16255119Y-10599643D01*
X16274167Y-10609167D01*
X16283690Y-10628214D01*
X16283690Y-10732976D01*
X16378928Y-10732976D02*
X16378928Y-10599643D01*
X16378928Y-10618690D02*
X16388452Y-10609167D01*
X16407500Y-10599643D01*
X16436071Y-10599643D01*
X16455119Y-10609167D01*
X16464643Y-10628214D01*
X16464643Y-10732976D01*
X16464643Y-10628214D02*
X16474167Y-10609167D01*
X16493214Y-10599643D01*
X16521786Y-10599643D01*
X16540833Y-10609167D01*
X16550357Y-10628214D01*
X16550357Y-10732976D01*
X16940833Y-10523452D02*
X16769405Y-10780595D01*
X17197976Y-10532976D02*
X17217024Y-10532976D01*
X17236071Y-10542500D01*
X17245595Y-10552024D01*
X17255119Y-10571071D01*
X17264643Y-10609167D01*
X17264643Y-10656786D01*
X17255119Y-10694881D01*
X17245595Y-10713929D01*
X17236071Y-10723452D01*
X17217024Y-10732976D01*
X17197976Y-10732976D01*
X17178929Y-10723452D01*
X17169405Y-10713929D01*
X17159881Y-10694881D01*
X17150357Y-10656786D01*
X17150357Y-10609167D01*
X17159881Y-10571071D01*
X17169405Y-10552024D01*
X17178929Y-10542500D01*
X17197976Y-10532976D01*
X17350357Y-10713929D02*
X17359881Y-10723452D01*
X17350357Y-10732976D01*
X17340833Y-10723452D01*
X17350357Y-10713929D01*
X17350357Y-10732976D01*
X17483690Y-10532976D02*
X17502738Y-10532976D01*
X17521786Y-10542500D01*
X17531310Y-10552024D01*
X17540833Y-10571071D01*
X17550357Y-10609167D01*
X17550357Y-10656786D01*
X17540833Y-10694881D01*
X17531310Y-10713929D01*
X17521786Y-10723452D01*
X17502738Y-10732976D01*
X17483690Y-10732976D01*
X17464643Y-10723452D01*
X17455119Y-10713929D01*
X17445595Y-10694881D01*
X17436071Y-10656786D01*
X17436071Y-10609167D01*
X17445595Y-10571071D01*
X17455119Y-10552024D01*
X17464643Y-10542500D01*
X17483690Y-10532976D01*
X17617024Y-10532976D02*
X17740833Y-10532976D01*
X17674167Y-10609167D01*
X17702738Y-10609167D01*
X17721786Y-10618690D01*
X17731310Y-10628214D01*
X17740833Y-10647262D01*
X17740833Y-10694881D01*
X17731310Y-10713929D01*
X17721786Y-10723452D01*
X17702738Y-10732976D01*
X17645595Y-10732976D01*
X17626548Y-10723452D01*
X17617024Y-10713929D01*
X17931310Y-10732976D02*
X17817024Y-10732976D01*
X17874167Y-10732976D02*
X17874167Y-10532976D01*
X17855119Y-10561548D01*
X17836071Y-10580595D01*
X17817024Y-10590119D01*
X18112262Y-10532976D02*
X18017024Y-10532976D01*
X18007500Y-10628214D01*
X18017024Y-10618690D01*
X18036071Y-10609167D01*
X18083690Y-10609167D01*
X18102738Y-10618690D01*
X18112262Y-10628214D01*
X18121786Y-10647262D01*
X18121786Y-10694881D01*
X18112262Y-10713929D01*
X18102738Y-10723452D01*
X18083690Y-10732976D01*
X18036071Y-10732976D01*
X18017024Y-10723452D01*
X18007500Y-10713929D01*
X18197976Y-10532976D02*
X18197976Y-10571071D01*
X18274167Y-10532976D02*
X18274167Y-10571071D01*
X18569405Y-10809167D02*
X18559881Y-10799643D01*
X18540833Y-10771071D01*
X18531310Y-10752024D01*
X18521786Y-10723452D01*
X18512262Y-10675833D01*
X18512262Y-10637738D01*
X18521786Y-10590119D01*
X18531310Y-10561548D01*
X18540833Y-10542500D01*
X18559881Y-10513929D01*
X18569405Y-10504405D01*
X18750357Y-10732976D02*
X18636071Y-10732976D01*
X18693214Y-10732976D02*
X18693214Y-10532976D01*
X18674167Y-10561548D01*
X18655119Y-10580595D01*
X18636071Y-10590119D01*
X18874167Y-10532976D02*
X18893214Y-10532976D01*
X18912262Y-10542500D01*
X18921786Y-10552024D01*
X18931310Y-10571071D01*
X18940833Y-10609167D01*
X18940833Y-10656786D01*
X18931310Y-10694881D01*
X18921786Y-10713929D01*
X18912262Y-10723452D01*
X18893214Y-10732976D01*
X18874167Y-10732976D01*
X18855119Y-10723452D01*
X18845595Y-10713929D01*
X18836071Y-10694881D01*
X18826548Y-10656786D01*
X18826548Y-10609167D01*
X18836071Y-10571071D01*
X18845595Y-10552024D01*
X18855119Y-10542500D01*
X18874167Y-10532976D01*
X19178929Y-10732976D02*
X19178929Y-10532976D01*
X19264643Y-10732976D02*
X19264643Y-10628214D01*
X19255119Y-10609167D01*
X19236071Y-10599643D01*
X19207500Y-10599643D01*
X19188452Y-10609167D01*
X19178929Y-10618690D01*
X19388452Y-10732976D02*
X19369405Y-10723452D01*
X19359881Y-10713929D01*
X19350357Y-10694881D01*
X19350357Y-10637738D01*
X19359881Y-10618690D01*
X19369405Y-10609167D01*
X19388452Y-10599643D01*
X19417024Y-10599643D01*
X19436071Y-10609167D01*
X19445595Y-10618690D01*
X19455119Y-10637738D01*
X19455119Y-10694881D01*
X19445595Y-10713929D01*
X19436071Y-10723452D01*
X19417024Y-10732976D01*
X19388452Y-10732976D01*
X19569405Y-10732976D02*
X19550357Y-10723452D01*
X19540833Y-10704405D01*
X19540833Y-10532976D01*
X19721786Y-10723452D02*
X19702738Y-10732976D01*
X19664643Y-10732976D01*
X19645595Y-10723452D01*
X19636071Y-10704405D01*
X19636071Y-10628214D01*
X19645595Y-10609167D01*
X19664643Y-10599643D01*
X19702738Y-10599643D01*
X19721786Y-10609167D01*
X19731310Y-10628214D01*
X19731310Y-10647262D01*
X19636071Y-10666310D01*
X19807500Y-10723452D02*
X19826548Y-10732976D01*
X19864643Y-10732976D01*
X19883690Y-10723452D01*
X19893214Y-10704405D01*
X19893214Y-10694881D01*
X19883690Y-10675833D01*
X19864643Y-10666310D01*
X19836071Y-10666310D01*
X19817024Y-10656786D01*
X19807500Y-10637738D01*
X19807500Y-10628214D01*
X19817024Y-10609167D01*
X19836071Y-10599643D01*
X19864643Y-10599643D01*
X19883690Y-10609167D01*
X19959881Y-10809167D02*
X19969405Y-10799643D01*
X19988452Y-10771071D01*
X19997976Y-10752024D01*
X20007500Y-10723452D01*
X20017024Y-10675833D01*
X20017024Y-10637738D01*
X20007500Y-10590119D01*
X19997976Y-10561548D01*
X19988452Y-10542500D01*
X19969405Y-10513929D01*
X19959881Y-10504405D01*
D13*
X14997500Y-10906500D02*
G75*
G03*
X14997500Y-10906500I-45000J0D01*
G01*
D11*
X15293214Y-10796976D02*
X15312262Y-10796976D01*
X15331309Y-10806500D01*
X15340833Y-10816024D01*
X15350357Y-10835071D01*
X15359881Y-10873167D01*
X15359881Y-10920786D01*
X15350357Y-10958881D01*
X15340833Y-10977929D01*
X15331309Y-10987452D01*
X15312262Y-10996976D01*
X15293214Y-10996976D01*
X15274167Y-10987452D01*
X15264643Y-10977929D01*
X15255119Y-10958881D01*
X15245595Y-10920786D01*
X15245595Y-10873167D01*
X15255119Y-10835071D01*
X15264643Y-10816024D01*
X15274167Y-10806500D01*
X15293214Y-10796976D01*
X15445595Y-10977929D02*
X15455119Y-10987452D01*
X15445595Y-10996976D01*
X15436071Y-10987452D01*
X15445595Y-10977929D01*
X15445595Y-10996976D01*
X15550357Y-10996976D02*
X15588452Y-10996976D01*
X15607500Y-10987452D01*
X15617024Y-10977929D01*
X15636071Y-10949357D01*
X15645595Y-10911262D01*
X15645595Y-10835071D01*
X15636071Y-10816024D01*
X15626548Y-10806500D01*
X15607500Y-10796976D01*
X15569405Y-10796976D01*
X15550357Y-10806500D01*
X15540833Y-10816024D01*
X15531309Y-10835071D01*
X15531309Y-10882690D01*
X15540833Y-10901738D01*
X15550357Y-10911262D01*
X15569405Y-10920786D01*
X15607500Y-10920786D01*
X15626548Y-10911262D01*
X15636071Y-10901738D01*
X15645595Y-10882690D01*
X15769405Y-10796976D02*
X15788452Y-10796976D01*
X15807500Y-10806500D01*
X15817024Y-10816024D01*
X15826548Y-10835071D01*
X15836071Y-10873167D01*
X15836071Y-10920786D01*
X15826548Y-10958881D01*
X15817024Y-10977929D01*
X15807500Y-10987452D01*
X15788452Y-10996976D01*
X15769405Y-10996976D01*
X15750357Y-10987452D01*
X15740833Y-10977929D01*
X15731309Y-10958881D01*
X15721786Y-10920786D01*
X15721786Y-10873167D01*
X15731309Y-10835071D01*
X15740833Y-10816024D01*
X15750357Y-10806500D01*
X15769405Y-10796976D01*
X15959881Y-10796976D02*
X15978928Y-10796976D01*
X15997976Y-10806500D01*
X16007500Y-10816024D01*
X16017024Y-10835071D01*
X16026548Y-10873167D01*
X16026548Y-10920786D01*
X16017024Y-10958881D01*
X16007500Y-10977929D01*
X15997976Y-10987452D01*
X15978928Y-10996976D01*
X15959881Y-10996976D01*
X15940833Y-10987452D01*
X15931309Y-10977929D01*
X15921786Y-10958881D01*
X15912262Y-10920786D01*
X15912262Y-10873167D01*
X15921786Y-10835071D01*
X15931309Y-10816024D01*
X15940833Y-10806500D01*
X15959881Y-10796976D01*
X16112262Y-10996976D02*
X16112262Y-10863643D01*
X16112262Y-10882690D02*
X16121786Y-10873167D01*
X16140833Y-10863643D01*
X16169405Y-10863643D01*
X16188452Y-10873167D01*
X16197976Y-10892214D01*
X16197976Y-10996976D01*
X16197976Y-10892214D02*
X16207500Y-10873167D01*
X16226548Y-10863643D01*
X16255119Y-10863643D01*
X16274167Y-10873167D01*
X16283690Y-10892214D01*
X16283690Y-10996976D01*
X16378928Y-10996976D02*
X16378928Y-10863643D01*
X16378928Y-10882690D02*
X16388452Y-10873167D01*
X16407500Y-10863643D01*
X16436071Y-10863643D01*
X16455119Y-10873167D01*
X16464643Y-10892214D01*
X16464643Y-10996976D01*
X16464643Y-10892214D02*
X16474167Y-10873167D01*
X16493214Y-10863643D01*
X16521786Y-10863643D01*
X16540833Y-10873167D01*
X16550357Y-10892214D01*
X16550357Y-10996976D01*
X16940833Y-10787452D02*
X16769405Y-11044595D01*
X17197976Y-10796976D02*
X17217024Y-10796976D01*
X17236071Y-10806500D01*
X17245595Y-10816024D01*
X17255119Y-10835071D01*
X17264643Y-10873167D01*
X17264643Y-10920786D01*
X17255119Y-10958881D01*
X17245595Y-10977929D01*
X17236071Y-10987452D01*
X17217024Y-10996976D01*
X17197976Y-10996976D01*
X17178929Y-10987452D01*
X17169405Y-10977929D01*
X17159881Y-10958881D01*
X17150357Y-10920786D01*
X17150357Y-10873167D01*
X17159881Y-10835071D01*
X17169405Y-10816024D01*
X17178929Y-10806500D01*
X17197976Y-10796976D01*
X17350357Y-10977929D02*
X17359881Y-10987452D01*
X17350357Y-10996976D01*
X17340833Y-10987452D01*
X17350357Y-10977929D01*
X17350357Y-10996976D01*
X17483690Y-10796976D02*
X17502738Y-10796976D01*
X17521786Y-10806500D01*
X17531310Y-10816024D01*
X17540833Y-10835071D01*
X17550357Y-10873167D01*
X17550357Y-10920786D01*
X17540833Y-10958881D01*
X17531310Y-10977929D01*
X17521786Y-10987452D01*
X17502738Y-10996976D01*
X17483690Y-10996976D01*
X17464643Y-10987452D01*
X17455119Y-10977929D01*
X17445595Y-10958881D01*
X17436071Y-10920786D01*
X17436071Y-10873167D01*
X17445595Y-10835071D01*
X17455119Y-10816024D01*
X17464643Y-10806500D01*
X17483690Y-10796976D01*
X17617024Y-10796976D02*
X17740833Y-10796976D01*
X17674167Y-10873167D01*
X17702738Y-10873167D01*
X17721786Y-10882690D01*
X17731310Y-10892214D01*
X17740833Y-10911262D01*
X17740833Y-10958881D01*
X17731310Y-10977929D01*
X17721786Y-10987452D01*
X17702738Y-10996976D01*
X17645595Y-10996976D01*
X17626548Y-10987452D01*
X17617024Y-10977929D01*
X17921786Y-10796976D02*
X17826548Y-10796976D01*
X17817024Y-10892214D01*
X17826548Y-10882690D01*
X17845595Y-10873167D01*
X17893214Y-10873167D01*
X17912262Y-10882690D01*
X17921786Y-10892214D01*
X17931310Y-10911262D01*
X17931310Y-10958881D01*
X17921786Y-10977929D01*
X17912262Y-10987452D01*
X17893214Y-10996976D01*
X17845595Y-10996976D01*
X17826548Y-10987452D01*
X17817024Y-10977929D01*
X18102738Y-10863643D02*
X18102738Y-10996976D01*
X18055119Y-10787452D02*
X18007500Y-10930310D01*
X18131310Y-10930310D01*
X18197976Y-10796976D02*
X18197976Y-10835071D01*
X18274167Y-10796976D02*
X18274167Y-10835071D01*
X18569405Y-11073167D02*
X18559881Y-11063643D01*
X18540833Y-11035071D01*
X18531310Y-11016024D01*
X18521786Y-10987452D01*
X18512262Y-10939833D01*
X18512262Y-10901738D01*
X18521786Y-10854119D01*
X18531310Y-10825548D01*
X18540833Y-10806500D01*
X18559881Y-10777929D01*
X18569405Y-10768405D01*
X18636071Y-10816024D02*
X18645595Y-10806500D01*
X18664643Y-10796976D01*
X18712262Y-10796976D01*
X18731310Y-10806500D01*
X18740833Y-10816024D01*
X18750357Y-10835071D01*
X18750357Y-10854119D01*
X18740833Y-10882690D01*
X18626548Y-10996976D01*
X18750357Y-10996976D01*
X18988452Y-10996976D02*
X18988452Y-10796976D01*
X19074167Y-10996976D02*
X19074167Y-10892214D01*
X19064643Y-10873167D01*
X19045595Y-10863643D01*
X19017024Y-10863643D01*
X18997976Y-10873167D01*
X18988452Y-10882690D01*
X19197976Y-10996976D02*
X19178929Y-10987452D01*
X19169405Y-10977929D01*
X19159881Y-10958881D01*
X19159881Y-10901738D01*
X19169405Y-10882690D01*
X19178929Y-10873167D01*
X19197976Y-10863643D01*
X19226548Y-10863643D01*
X19245595Y-10873167D01*
X19255119Y-10882690D01*
X19264643Y-10901738D01*
X19264643Y-10958881D01*
X19255119Y-10977929D01*
X19245595Y-10987452D01*
X19226548Y-10996976D01*
X19197976Y-10996976D01*
X19378929Y-10996976D02*
X19359881Y-10987452D01*
X19350357Y-10968405D01*
X19350357Y-10796976D01*
X19531310Y-10987452D02*
X19512262Y-10996976D01*
X19474167Y-10996976D01*
X19455119Y-10987452D01*
X19445595Y-10968405D01*
X19445595Y-10892214D01*
X19455119Y-10873167D01*
X19474167Y-10863643D01*
X19512262Y-10863643D01*
X19531310Y-10873167D01*
X19540833Y-10892214D01*
X19540833Y-10911262D01*
X19445595Y-10930310D01*
X19617024Y-10987452D02*
X19636071Y-10996976D01*
X19674167Y-10996976D01*
X19693214Y-10987452D01*
X19702738Y-10968405D01*
X19702738Y-10958881D01*
X19693214Y-10939833D01*
X19674167Y-10930310D01*
X19645595Y-10930310D01*
X19626548Y-10920786D01*
X19617024Y-10901738D01*
X19617024Y-10892214D01*
X19626548Y-10873167D01*
X19645595Y-10863643D01*
X19674167Y-10863643D01*
X19693214Y-10873167D01*
X19769405Y-11073167D02*
X19778929Y-11063643D01*
X19797976Y-11035071D01*
X19807500Y-11016024D01*
X19817024Y-10987452D01*
X19826548Y-10939833D01*
X19826548Y-10901738D01*
X19817024Y-10854119D01*
X19807500Y-10825548D01*
X19797976Y-10806500D01*
X19778929Y-10777929D01*
X19769405Y-10768405D01*
D14*
X14945500Y-11118500D02*
X14945500Y-11222500D01*
X14893500Y-11170500D02*
X14997500Y-11170500D01*
D11*
X15359881Y-11260976D02*
X15245595Y-11260976D01*
X15302738Y-11260976D02*
X15302738Y-11060976D01*
X15283690Y-11089548D01*
X15264643Y-11108595D01*
X15245595Y-11118119D01*
X15445595Y-11241928D02*
X15455119Y-11251452D01*
X15445595Y-11260976D01*
X15436071Y-11251452D01*
X15445595Y-11241928D01*
X15445595Y-11260976D01*
X15578928Y-11060976D02*
X15597976Y-11060976D01*
X15617024Y-11070500D01*
X15626548Y-11080024D01*
X15636071Y-11099071D01*
X15645595Y-11137167D01*
X15645595Y-11184786D01*
X15636071Y-11222881D01*
X15626548Y-11241928D01*
X15617024Y-11251452D01*
X15597976Y-11260976D01*
X15578928Y-11260976D01*
X15559881Y-11251452D01*
X15550357Y-11241928D01*
X15540833Y-11222881D01*
X15531309Y-11184786D01*
X15531309Y-11137167D01*
X15540833Y-11099071D01*
X15550357Y-11080024D01*
X15559881Y-11070500D01*
X15578928Y-11060976D01*
X15817024Y-11127643D02*
X15817024Y-11260976D01*
X15769405Y-11051452D02*
X15721786Y-11194309D01*
X15845595Y-11194309D01*
X15959881Y-11060976D02*
X15978928Y-11060976D01*
X15997976Y-11070500D01*
X16007500Y-11080024D01*
X16017024Y-11099071D01*
X16026548Y-11137167D01*
X16026548Y-11184786D01*
X16017024Y-11222881D01*
X16007500Y-11241928D01*
X15997976Y-11251452D01*
X15978928Y-11260976D01*
X15959881Y-11260976D01*
X15940833Y-11251452D01*
X15931309Y-11241928D01*
X15921786Y-11222881D01*
X15912262Y-11184786D01*
X15912262Y-11137167D01*
X15921786Y-11099071D01*
X15931309Y-11080024D01*
X15940833Y-11070500D01*
X15959881Y-11060976D01*
X16112262Y-11260976D02*
X16112262Y-11127643D01*
X16112262Y-11146690D02*
X16121786Y-11137167D01*
X16140833Y-11127643D01*
X16169405Y-11127643D01*
X16188452Y-11137167D01*
X16197976Y-11156214D01*
X16197976Y-11260976D01*
X16197976Y-11156214D02*
X16207500Y-11137167D01*
X16226548Y-11127643D01*
X16255119Y-11127643D01*
X16274167Y-11137167D01*
X16283690Y-11156214D01*
X16283690Y-11260976D01*
X16378928Y-11260976D02*
X16378928Y-11127643D01*
X16378928Y-11146690D02*
X16388452Y-11137167D01*
X16407500Y-11127643D01*
X16436071Y-11127643D01*
X16455119Y-11137167D01*
X16464643Y-11156214D01*
X16464643Y-11260976D01*
X16464643Y-11156214D02*
X16474167Y-11137167D01*
X16493214Y-11127643D01*
X16521786Y-11127643D01*
X16540833Y-11137167D01*
X16550357Y-11156214D01*
X16550357Y-11260976D01*
X16940833Y-11051452D02*
X16769405Y-11308595D01*
X17197976Y-11060976D02*
X17217024Y-11060976D01*
X17236071Y-11070500D01*
X17245595Y-11080024D01*
X17255119Y-11099071D01*
X17264643Y-11137167D01*
X17264643Y-11184786D01*
X17255119Y-11222881D01*
X17245595Y-11241928D01*
X17236071Y-11251452D01*
X17217024Y-11260976D01*
X17197976Y-11260976D01*
X17178929Y-11251452D01*
X17169405Y-11241928D01*
X17159881Y-11222881D01*
X17150357Y-11184786D01*
X17150357Y-11137167D01*
X17159881Y-11099071D01*
X17169405Y-11080024D01*
X17178929Y-11070500D01*
X17197976Y-11060976D01*
X17350357Y-11241928D02*
X17359881Y-11251452D01*
X17350357Y-11260976D01*
X17340833Y-11251452D01*
X17350357Y-11241928D01*
X17350357Y-11260976D01*
X17483690Y-11060976D02*
X17502738Y-11060976D01*
X17521786Y-11070500D01*
X17531310Y-11080024D01*
X17540833Y-11099071D01*
X17550357Y-11137167D01*
X17550357Y-11184786D01*
X17540833Y-11222881D01*
X17531310Y-11241928D01*
X17521786Y-11251452D01*
X17502738Y-11260976D01*
X17483690Y-11260976D01*
X17464643Y-11251452D01*
X17455119Y-11241928D01*
X17445595Y-11222881D01*
X17436071Y-11184786D01*
X17436071Y-11137167D01*
X17445595Y-11099071D01*
X17455119Y-11080024D01*
X17464643Y-11070500D01*
X17483690Y-11060976D01*
X17721786Y-11127643D02*
X17721786Y-11260976D01*
X17674167Y-11051452D02*
X17626548Y-11194309D01*
X17750357Y-11194309D01*
X17864643Y-11060976D02*
X17883690Y-11060976D01*
X17902738Y-11070500D01*
X17912262Y-11080024D01*
X17921786Y-11099071D01*
X17931310Y-11137167D01*
X17931310Y-11184786D01*
X17921786Y-11222881D01*
X17912262Y-11241928D01*
X17902738Y-11251452D01*
X17883690Y-11260976D01*
X17864643Y-11260976D01*
X17845595Y-11251452D01*
X17836071Y-11241928D01*
X17826548Y-11222881D01*
X17817024Y-11184786D01*
X17817024Y-11137167D01*
X17826548Y-11099071D01*
X17836071Y-11080024D01*
X17845595Y-11070500D01*
X17864643Y-11060976D01*
X18026548Y-11260976D02*
X18064643Y-11260976D01*
X18083690Y-11251452D01*
X18093214Y-11241928D01*
X18112262Y-11213357D01*
X18121786Y-11175262D01*
X18121786Y-11099071D01*
X18112262Y-11080024D01*
X18102738Y-11070500D01*
X18083690Y-11060976D01*
X18045595Y-11060976D01*
X18026548Y-11070500D01*
X18017024Y-11080024D01*
X18007500Y-11099071D01*
X18007500Y-11146690D01*
X18017024Y-11165738D01*
X18026548Y-11175262D01*
X18045595Y-11184786D01*
X18083690Y-11184786D01*
X18102738Y-11175262D01*
X18112262Y-11165738D01*
X18121786Y-11146690D01*
X18197976Y-11060976D02*
X18197976Y-11099071D01*
X18274167Y-11060976D02*
X18274167Y-11099071D01*
X18569405Y-11337167D02*
X18559881Y-11327643D01*
X18540833Y-11299071D01*
X18531310Y-11280024D01*
X18521786Y-11251452D01*
X18512262Y-11203833D01*
X18512262Y-11165738D01*
X18521786Y-11118119D01*
X18531310Y-11089548D01*
X18540833Y-11070500D01*
X18559881Y-11041929D01*
X18569405Y-11032405D01*
X18626548Y-11060976D02*
X18750357Y-11060976D01*
X18683690Y-11137167D01*
X18712262Y-11137167D01*
X18731310Y-11146690D01*
X18740833Y-11156214D01*
X18750357Y-11175262D01*
X18750357Y-11222881D01*
X18740833Y-11241928D01*
X18731310Y-11251452D01*
X18712262Y-11260976D01*
X18655119Y-11260976D01*
X18636071Y-11251452D01*
X18626548Y-11241928D01*
X18864643Y-11146690D02*
X18845595Y-11137167D01*
X18836071Y-11127643D01*
X18826548Y-11108595D01*
X18826548Y-11099071D01*
X18836071Y-11080024D01*
X18845595Y-11070500D01*
X18864643Y-11060976D01*
X18902738Y-11060976D01*
X18921786Y-11070500D01*
X18931310Y-11080024D01*
X18940833Y-11099071D01*
X18940833Y-11108595D01*
X18931310Y-11127643D01*
X18921786Y-11137167D01*
X18902738Y-11146690D01*
X18864643Y-11146690D01*
X18845595Y-11156214D01*
X18836071Y-11165738D01*
X18826548Y-11184786D01*
X18826548Y-11222881D01*
X18836071Y-11241928D01*
X18845595Y-11251452D01*
X18864643Y-11260976D01*
X18902738Y-11260976D01*
X18921786Y-11251452D01*
X18931310Y-11241928D01*
X18940833Y-11222881D01*
X18940833Y-11184786D01*
X18931310Y-11165738D01*
X18921786Y-11156214D01*
X18902738Y-11146690D01*
X19178929Y-11260976D02*
X19178929Y-11060976D01*
X19264643Y-11260976D02*
X19264643Y-11156214D01*
X19255119Y-11137167D01*
X19236071Y-11127643D01*
X19207500Y-11127643D01*
X19188452Y-11137167D01*
X19178929Y-11146690D01*
X19388452Y-11260976D02*
X19369405Y-11251452D01*
X19359881Y-11241928D01*
X19350357Y-11222881D01*
X19350357Y-11165738D01*
X19359881Y-11146690D01*
X19369405Y-11137167D01*
X19388452Y-11127643D01*
X19417024Y-11127643D01*
X19436071Y-11137167D01*
X19445595Y-11146690D01*
X19455119Y-11165738D01*
X19455119Y-11222881D01*
X19445595Y-11241928D01*
X19436071Y-11251452D01*
X19417024Y-11260976D01*
X19388452Y-11260976D01*
X19569405Y-11260976D02*
X19550357Y-11251452D01*
X19540833Y-11232405D01*
X19540833Y-11060976D01*
X19721786Y-11251452D02*
X19702738Y-11260976D01*
X19664643Y-11260976D01*
X19645595Y-11251452D01*
X19636071Y-11232405D01*
X19636071Y-11156214D01*
X19645595Y-11137167D01*
X19664643Y-11127643D01*
X19702738Y-11127643D01*
X19721786Y-11137167D01*
X19731310Y-11156214D01*
X19731310Y-11175262D01*
X19636071Y-11194309D01*
X19807500Y-11251452D02*
X19826548Y-11260976D01*
X19864643Y-11260976D01*
X19883690Y-11251452D01*
X19893214Y-11232405D01*
X19893214Y-11222881D01*
X19883690Y-11203833D01*
X19864643Y-11194309D01*
X19836071Y-11194309D01*
X19817024Y-11184786D01*
X19807500Y-11165738D01*
X19807500Y-11156214D01*
X19817024Y-11137167D01*
X19836071Y-11127643D01*
X19864643Y-11127643D01*
X19883690Y-11137167D01*
X19959881Y-11337167D02*
X19969405Y-11327643D01*
X19988452Y-11299071D01*
X19997976Y-11280024D01*
X20007500Y-11251452D01*
X20017024Y-11203833D01*
X20017024Y-11165738D01*
X20007500Y-11118119D01*
X19997976Y-11089548D01*
X19988452Y-11070500D01*
X19969405Y-11041929D01*
X19959881Y-11032405D01*
D15*
X14975241Y-11488241D02*
X14975241Y-11380759D01*
X14867759Y-11380759D01*
X14867759Y-11488241D01*
X14975241Y-11488241D01*
D11*
X15359881Y-11524976D02*
X15245595Y-11524976D01*
X15302738Y-11524976D02*
X15302738Y-11324976D01*
X15283690Y-11353548D01*
X15264643Y-11372595D01*
X15245595Y-11382119D01*
X15445595Y-11505928D02*
X15455119Y-11515452D01*
X15445595Y-11524976D01*
X15436071Y-11515452D01*
X15445595Y-11505928D01*
X15445595Y-11524976D01*
X15636071Y-11324976D02*
X15540833Y-11324976D01*
X15531309Y-11420214D01*
X15540833Y-11410690D01*
X15559881Y-11401167D01*
X15607500Y-11401167D01*
X15626548Y-11410690D01*
X15636071Y-11420214D01*
X15645595Y-11439262D01*
X15645595Y-11486881D01*
X15636071Y-11505928D01*
X15626548Y-11515452D01*
X15607500Y-11524976D01*
X15559881Y-11524976D01*
X15540833Y-11515452D01*
X15531309Y-11505928D01*
X15721786Y-11344024D02*
X15731309Y-11334500D01*
X15750357Y-11324976D01*
X15797976Y-11324976D01*
X15817024Y-11334500D01*
X15826548Y-11344024D01*
X15836071Y-11363071D01*
X15836071Y-11382119D01*
X15826548Y-11410690D01*
X15712262Y-11524976D01*
X15836071Y-11524976D01*
X15959881Y-11324976D02*
X15978928Y-11324976D01*
X15997976Y-11334500D01*
X16007500Y-11344024D01*
X16017024Y-11363071D01*
X16026548Y-11401167D01*
X16026548Y-11448786D01*
X16017024Y-11486881D01*
X16007500Y-11505928D01*
X15997976Y-11515452D01*
X15978928Y-11524976D01*
X15959881Y-11524976D01*
X15940833Y-11515452D01*
X15931309Y-11505928D01*
X15921786Y-11486881D01*
X15912262Y-11448786D01*
X15912262Y-11401167D01*
X15921786Y-11363071D01*
X15931309Y-11344024D01*
X15940833Y-11334500D01*
X15959881Y-11324976D01*
X16112262Y-11524976D02*
X16112262Y-11391643D01*
X16112262Y-11410690D02*
X16121786Y-11401167D01*
X16140833Y-11391643D01*
X16169405Y-11391643D01*
X16188452Y-11401167D01*
X16197976Y-11420214D01*
X16197976Y-11524976D01*
X16197976Y-11420214D02*
X16207500Y-11401167D01*
X16226548Y-11391643D01*
X16255119Y-11391643D01*
X16274167Y-11401167D01*
X16283690Y-11420214D01*
X16283690Y-11524976D01*
X16378928Y-11524976D02*
X16378928Y-11391643D01*
X16378928Y-11410690D02*
X16388452Y-11401167D01*
X16407500Y-11391643D01*
X16436071Y-11391643D01*
X16455119Y-11401167D01*
X16464643Y-11420214D01*
X16464643Y-11524976D01*
X16464643Y-11420214D02*
X16474167Y-11401167D01*
X16493214Y-11391643D01*
X16521786Y-11391643D01*
X16540833Y-11401167D01*
X16550357Y-11420214D01*
X16550357Y-11524976D01*
X16940833Y-11315452D02*
X16769405Y-11572595D01*
X17197976Y-11324976D02*
X17217024Y-11324976D01*
X17236071Y-11334500D01*
X17245595Y-11344024D01*
X17255119Y-11363071D01*
X17264643Y-11401167D01*
X17264643Y-11448786D01*
X17255119Y-11486881D01*
X17245595Y-11505928D01*
X17236071Y-11515452D01*
X17217024Y-11524976D01*
X17197976Y-11524976D01*
X17178929Y-11515452D01*
X17169405Y-11505928D01*
X17159881Y-11486881D01*
X17150357Y-11448786D01*
X17150357Y-11401167D01*
X17159881Y-11363071D01*
X17169405Y-11344024D01*
X17178929Y-11334500D01*
X17197976Y-11324976D01*
X17350357Y-11505928D02*
X17359881Y-11515452D01*
X17350357Y-11524976D01*
X17340833Y-11515452D01*
X17350357Y-11505928D01*
X17350357Y-11524976D01*
X17483690Y-11324976D02*
X17502738Y-11324976D01*
X17521786Y-11334500D01*
X17531310Y-11344024D01*
X17540833Y-11363071D01*
X17550357Y-11401167D01*
X17550357Y-11448786D01*
X17540833Y-11486881D01*
X17531310Y-11505928D01*
X17521786Y-11515452D01*
X17502738Y-11524976D01*
X17483690Y-11524976D01*
X17464643Y-11515452D01*
X17455119Y-11505928D01*
X17445595Y-11486881D01*
X17436071Y-11448786D01*
X17436071Y-11401167D01*
X17445595Y-11363071D01*
X17455119Y-11344024D01*
X17464643Y-11334500D01*
X17483690Y-11324976D01*
X17731310Y-11324976D02*
X17636071Y-11324976D01*
X17626548Y-11420214D01*
X17636071Y-11410690D01*
X17655119Y-11401167D01*
X17702738Y-11401167D01*
X17721786Y-11410690D01*
X17731310Y-11420214D01*
X17740833Y-11439262D01*
X17740833Y-11486881D01*
X17731310Y-11505928D01*
X17721786Y-11515452D01*
X17702738Y-11524976D01*
X17655119Y-11524976D01*
X17636071Y-11515452D01*
X17626548Y-11505928D01*
X17836071Y-11524976D02*
X17874167Y-11524976D01*
X17893214Y-11515452D01*
X17902738Y-11505928D01*
X17921786Y-11477357D01*
X17931310Y-11439262D01*
X17931310Y-11363071D01*
X17921786Y-11344024D01*
X17912262Y-11334500D01*
X17893214Y-11324976D01*
X17855119Y-11324976D01*
X17836071Y-11334500D01*
X17826548Y-11344024D01*
X17817024Y-11363071D01*
X17817024Y-11410690D01*
X17826548Y-11429738D01*
X17836071Y-11439262D01*
X17855119Y-11448786D01*
X17893214Y-11448786D01*
X17912262Y-11439262D01*
X17921786Y-11429738D01*
X17931310Y-11410690D01*
X18045595Y-11410690D02*
X18026548Y-11401167D01*
X18017024Y-11391643D01*
X18007500Y-11372595D01*
X18007500Y-11363071D01*
X18017024Y-11344024D01*
X18026548Y-11334500D01*
X18045595Y-11324976D01*
X18083690Y-11324976D01*
X18102738Y-11334500D01*
X18112262Y-11344024D01*
X18121786Y-11363071D01*
X18121786Y-11372595D01*
X18112262Y-11391643D01*
X18102738Y-11401167D01*
X18083690Y-11410690D01*
X18045595Y-11410690D01*
X18026548Y-11420214D01*
X18017024Y-11429738D01*
X18007500Y-11448786D01*
X18007500Y-11486881D01*
X18017024Y-11505928D01*
X18026548Y-11515452D01*
X18045595Y-11524976D01*
X18083690Y-11524976D01*
X18102738Y-11515452D01*
X18112262Y-11505928D01*
X18121786Y-11486881D01*
X18121786Y-11448786D01*
X18112262Y-11429738D01*
X18102738Y-11420214D01*
X18083690Y-11410690D01*
X18197976Y-11324976D02*
X18197976Y-11363071D01*
X18274167Y-11324976D02*
X18274167Y-11363071D01*
X18569405Y-11601167D02*
X18559881Y-11591643D01*
X18540833Y-11563071D01*
X18531310Y-11544024D01*
X18521786Y-11515452D01*
X18512262Y-11467833D01*
X18512262Y-11429738D01*
X18521786Y-11382119D01*
X18531310Y-11353548D01*
X18540833Y-11334500D01*
X18559881Y-11305928D01*
X18569405Y-11296405D01*
X18636071Y-11344024D02*
X18645595Y-11334500D01*
X18664643Y-11324976D01*
X18712262Y-11324976D01*
X18731310Y-11334500D01*
X18740833Y-11344024D01*
X18750357Y-11363071D01*
X18750357Y-11382119D01*
X18740833Y-11410690D01*
X18626548Y-11524976D01*
X18750357Y-11524976D01*
X18988452Y-11524976D02*
X18988452Y-11324976D01*
X19074167Y-11524976D02*
X19074167Y-11420214D01*
X19064643Y-11401167D01*
X19045595Y-11391643D01*
X19017024Y-11391643D01*
X18997976Y-11401167D01*
X18988452Y-11410690D01*
X19197976Y-11524976D02*
X19178929Y-11515452D01*
X19169405Y-11505928D01*
X19159881Y-11486881D01*
X19159881Y-11429738D01*
X19169405Y-11410690D01*
X19178929Y-11401167D01*
X19197976Y-11391643D01*
X19226548Y-11391643D01*
X19245595Y-11401167D01*
X19255119Y-11410690D01*
X19264643Y-11429738D01*
X19264643Y-11486881D01*
X19255119Y-11505928D01*
X19245595Y-11515452D01*
X19226548Y-11524976D01*
X19197976Y-11524976D01*
X19378929Y-11524976D02*
X19359881Y-11515452D01*
X19350357Y-11496405D01*
X19350357Y-11324976D01*
X19531310Y-11515452D02*
X19512262Y-11524976D01*
X19474167Y-11524976D01*
X19455119Y-11515452D01*
X19445595Y-11496405D01*
X19445595Y-11420214D01*
X19455119Y-11401167D01*
X19474167Y-11391643D01*
X19512262Y-11391643D01*
X19531310Y-11401167D01*
X19540833Y-11420214D01*
X19540833Y-11439262D01*
X19445595Y-11458309D01*
X19617024Y-11515452D02*
X19636071Y-11524976D01*
X19674167Y-11524976D01*
X19693214Y-11515452D01*
X19702738Y-11496405D01*
X19702738Y-11486881D01*
X19693214Y-11467833D01*
X19674167Y-11458309D01*
X19645595Y-11458309D01*
X19626548Y-11448786D01*
X19617024Y-11429738D01*
X19617024Y-11420214D01*
X19626548Y-11401167D01*
X19645595Y-11391643D01*
X19674167Y-11391643D01*
X19693214Y-11401167D01*
X19769405Y-11601167D02*
X19778929Y-11591643D01*
X19797976Y-11563071D01*
X19807500Y-11544024D01*
X19817024Y-11515452D01*
X19826548Y-11467833D01*
X19826548Y-11429738D01*
X19817024Y-11382119D01*
X19807500Y-11353548D01*
X19797976Y-11334500D01*
X19778929Y-11305928D01*
X19769405Y-11296405D01*
X14897500Y-11806500D02*
X14997500Y-11706500D01*
X14897500Y-11606500D01*
X14797500Y-11706500D01*
X14897500Y-11806500D01*
X15245595Y-11616024D02*
X15255119Y-11606500D01*
X15274167Y-11596976D01*
X15321786Y-11596976D01*
X15340833Y-11606500D01*
X15350357Y-11616024D01*
X15359881Y-11635071D01*
X15359881Y-11654119D01*
X15350357Y-11682690D01*
X15236071Y-11796976D01*
X15359881Y-11796976D01*
X15445595Y-11777928D02*
X15455119Y-11787452D01*
X15445595Y-11796976D01*
X15436071Y-11787452D01*
X15445595Y-11777928D01*
X15445595Y-11796976D01*
X15636071Y-11596976D02*
X15540833Y-11596976D01*
X15531309Y-11692214D01*
X15540833Y-11682690D01*
X15559881Y-11673167D01*
X15607500Y-11673167D01*
X15626548Y-11682690D01*
X15636071Y-11692214D01*
X15645595Y-11711262D01*
X15645595Y-11758881D01*
X15636071Y-11777928D01*
X15626548Y-11787452D01*
X15607500Y-11796976D01*
X15559881Y-11796976D01*
X15540833Y-11787452D01*
X15531309Y-11777928D01*
X15769405Y-11596976D02*
X15788452Y-11596976D01*
X15807500Y-11606500D01*
X15817024Y-11616024D01*
X15826548Y-11635071D01*
X15836071Y-11673167D01*
X15836071Y-11720786D01*
X15826548Y-11758881D01*
X15817024Y-11777928D01*
X15807500Y-11787452D01*
X15788452Y-11796976D01*
X15769405Y-11796976D01*
X15750357Y-11787452D01*
X15740833Y-11777928D01*
X15731309Y-11758881D01*
X15721786Y-11720786D01*
X15721786Y-11673167D01*
X15731309Y-11635071D01*
X15740833Y-11616024D01*
X15750357Y-11606500D01*
X15769405Y-11596976D01*
X15959881Y-11596976D02*
X15978928Y-11596976D01*
X15997976Y-11606500D01*
X16007500Y-11616024D01*
X16017024Y-11635071D01*
X16026548Y-11673167D01*
X16026548Y-11720786D01*
X16017024Y-11758881D01*
X16007500Y-11777928D01*
X15997976Y-11787452D01*
X15978928Y-11796976D01*
X15959881Y-11796976D01*
X15940833Y-11787452D01*
X15931309Y-11777928D01*
X15921786Y-11758881D01*
X15912262Y-11720786D01*
X15912262Y-11673167D01*
X15921786Y-11635071D01*
X15931309Y-11616024D01*
X15940833Y-11606500D01*
X15959881Y-11596976D01*
X16112262Y-11796976D02*
X16112262Y-11663643D01*
X16112262Y-11682690D02*
X16121786Y-11673167D01*
X16140833Y-11663643D01*
X16169405Y-11663643D01*
X16188452Y-11673167D01*
X16197976Y-11692214D01*
X16197976Y-11796976D01*
X16197976Y-11692214D02*
X16207500Y-11673167D01*
X16226548Y-11663643D01*
X16255119Y-11663643D01*
X16274167Y-11673167D01*
X16283690Y-11692214D01*
X16283690Y-11796976D01*
X16378928Y-11796976D02*
X16378928Y-11663643D01*
X16378928Y-11682690D02*
X16388452Y-11673167D01*
X16407500Y-11663643D01*
X16436071Y-11663643D01*
X16455119Y-11673167D01*
X16464643Y-11692214D01*
X16464643Y-11796976D01*
X16464643Y-11692214D02*
X16474167Y-11673167D01*
X16493214Y-11663643D01*
X16521786Y-11663643D01*
X16540833Y-11673167D01*
X16550357Y-11692214D01*
X16550357Y-11796976D01*
X16940833Y-11587452D02*
X16769405Y-11844595D01*
X17197976Y-11596976D02*
X17217024Y-11596976D01*
X17236071Y-11606500D01*
X17245595Y-11616024D01*
X17255119Y-11635071D01*
X17264643Y-11673167D01*
X17264643Y-11720786D01*
X17255119Y-11758881D01*
X17245595Y-11777928D01*
X17236071Y-11787452D01*
X17217024Y-11796976D01*
X17197976Y-11796976D01*
X17178929Y-11787452D01*
X17169405Y-11777928D01*
X17159881Y-11758881D01*
X17150357Y-11720786D01*
X17150357Y-11673167D01*
X17159881Y-11635071D01*
X17169405Y-11616024D01*
X17178929Y-11606500D01*
X17197976Y-11596976D01*
X17350357Y-11777928D02*
X17359881Y-11787452D01*
X17350357Y-11796976D01*
X17340833Y-11787452D01*
X17350357Y-11777928D01*
X17350357Y-11796976D01*
X17483690Y-11596976D02*
X17502738Y-11596976D01*
X17521786Y-11606500D01*
X17531310Y-11616024D01*
X17540833Y-11635071D01*
X17550357Y-11673167D01*
X17550357Y-11720786D01*
X17540833Y-11758881D01*
X17531310Y-11777928D01*
X17521786Y-11787452D01*
X17502738Y-11796976D01*
X17483690Y-11796976D01*
X17464643Y-11787452D01*
X17455119Y-11777928D01*
X17445595Y-11758881D01*
X17436071Y-11720786D01*
X17436071Y-11673167D01*
X17445595Y-11635071D01*
X17455119Y-11616024D01*
X17464643Y-11606500D01*
X17483690Y-11596976D01*
X17645595Y-11796976D02*
X17683690Y-11796976D01*
X17702738Y-11787452D01*
X17712262Y-11777928D01*
X17731310Y-11749357D01*
X17740833Y-11711262D01*
X17740833Y-11635071D01*
X17731310Y-11616024D01*
X17721786Y-11606500D01*
X17702738Y-11596976D01*
X17664643Y-11596976D01*
X17645595Y-11606500D01*
X17636071Y-11616024D01*
X17626548Y-11635071D01*
X17626548Y-11682690D01*
X17636071Y-11701738D01*
X17645595Y-11711262D01*
X17664643Y-11720786D01*
X17702738Y-11720786D01*
X17721786Y-11711262D01*
X17731310Y-11701738D01*
X17740833Y-11682690D01*
X17855119Y-11682690D02*
X17836071Y-11673167D01*
X17826548Y-11663643D01*
X17817024Y-11644595D01*
X17817024Y-11635071D01*
X17826548Y-11616024D01*
X17836071Y-11606500D01*
X17855119Y-11596976D01*
X17893214Y-11596976D01*
X17912262Y-11606500D01*
X17921786Y-11616024D01*
X17931310Y-11635071D01*
X17931310Y-11644595D01*
X17921786Y-11663643D01*
X17912262Y-11673167D01*
X17893214Y-11682690D01*
X17855119Y-11682690D01*
X17836071Y-11692214D01*
X17826548Y-11701738D01*
X17817024Y-11720786D01*
X17817024Y-11758881D01*
X17826548Y-11777928D01*
X17836071Y-11787452D01*
X17855119Y-11796976D01*
X17893214Y-11796976D01*
X17912262Y-11787452D01*
X17921786Y-11777928D01*
X17931310Y-11758881D01*
X17931310Y-11720786D01*
X17921786Y-11701738D01*
X17912262Y-11692214D01*
X17893214Y-11682690D01*
X18102738Y-11663643D02*
X18102738Y-11796976D01*
X18055119Y-11587452D02*
X18007500Y-11730309D01*
X18131310Y-11730309D01*
X18197976Y-11596976D02*
X18197976Y-11635071D01*
X18274167Y-11596976D02*
X18274167Y-11635071D01*
X18569405Y-11873167D02*
X18559881Y-11863643D01*
X18540833Y-11835071D01*
X18531310Y-11816024D01*
X18521786Y-11787452D01*
X18512262Y-11739833D01*
X18512262Y-11701738D01*
X18521786Y-11654119D01*
X18531310Y-11625548D01*
X18540833Y-11606500D01*
X18559881Y-11577928D01*
X18569405Y-11568405D01*
X18731310Y-11663643D02*
X18731310Y-11796976D01*
X18683690Y-11587452D02*
X18636071Y-11730309D01*
X18759881Y-11730309D01*
X18988452Y-11796976D02*
X18988452Y-11596976D01*
X19074167Y-11796976D02*
X19074167Y-11692214D01*
X19064643Y-11673167D01*
X19045595Y-11663643D01*
X19017024Y-11663643D01*
X18997976Y-11673167D01*
X18988452Y-11682690D01*
X19197976Y-11796976D02*
X19178929Y-11787452D01*
X19169405Y-11777928D01*
X19159881Y-11758881D01*
X19159881Y-11701738D01*
X19169405Y-11682690D01*
X19178929Y-11673167D01*
X19197976Y-11663643D01*
X19226548Y-11663643D01*
X19245595Y-11673167D01*
X19255119Y-11682690D01*
X19264643Y-11701738D01*
X19264643Y-11758881D01*
X19255119Y-11777928D01*
X19245595Y-11787452D01*
X19226548Y-11796976D01*
X19197976Y-11796976D01*
X19378929Y-11796976D02*
X19359881Y-11787452D01*
X19350357Y-11768405D01*
X19350357Y-11596976D01*
X19531310Y-11787452D02*
X19512262Y-11796976D01*
X19474167Y-11796976D01*
X19455119Y-11787452D01*
X19445595Y-11768405D01*
X19445595Y-11692214D01*
X19455119Y-11673167D01*
X19474167Y-11663643D01*
X19512262Y-11663643D01*
X19531310Y-11673167D01*
X19540833Y-11692214D01*
X19540833Y-11711262D01*
X19445595Y-11730309D01*
X19617024Y-11787452D02*
X19636071Y-11796976D01*
X19674167Y-11796976D01*
X19693214Y-11787452D01*
X19702738Y-11768405D01*
X19702738Y-11758881D01*
X19693214Y-11739833D01*
X19674167Y-11730309D01*
X19645595Y-11730309D01*
X19626548Y-11720786D01*
X19617024Y-11701738D01*
X19617024Y-11692214D01*
X19626548Y-11673167D01*
X19645595Y-11663643D01*
X19674167Y-11663643D01*
X19693214Y-11673167D01*
X19769405Y-11873167D02*
X19778929Y-11863643D01*
X19797976Y-11835071D01*
X19807500Y-11816024D01*
X19817024Y-11787452D01*
X19826548Y-11739833D01*
X19826548Y-11701738D01*
X19817024Y-11654119D01*
X19807500Y-11625548D01*
X19797976Y-11606500D01*
X19778929Y-11577928D01*
X19769405Y-11568405D01*
M02*
